M48
; DRILL file {KiCad (6.0.11)} date Sun Oct 15 10:12:43 2023
; FORMAT={-:-/ absolute / metric / decimal}
; #@! TF.CreationDate,2023-10-15T10:12:43-04:00
; #@! TF.GenerationSoftware,Kicad,Pcbnew,(6.0.11)
; #@! TF.FileFunction,Plated,1,2,PTH
FMAT,2
METRIC
; #@! TA.AperFunction,Plated,PTH,ViaDrill
T1C0.400
; #@! TA.AperFunction,Plated,PTH,ComponentDrill
T2C0.800
; #@! TA.AperFunction,Plated,PTH,ComponentDrill
T3C0.900
; #@! TA.AperFunction,Plated,PTH,ComponentDrill
T4C1.000
; #@! TA.AperFunction,Plated,PTH,ComponentDrill
T5C1.016
; #@! TA.AperFunction,Plated,PTH,ComponentDrill
T6C1.300
%
G90
G05
T1
X43.395Y-26.788
X43.395Y-76.623
X52.996Y-24.261
X52.996Y-74.096
X66.458Y-22.927
X66.458Y-72.762
X68.541Y-18.406
X68.541Y-68.241
X71.284Y-22.978
X71.284Y-72.813
X71.335Y-18.406
X71.335Y-68.241
X78.955Y-18.559
X78.955Y-68.393
X79.514Y-25.569
X79.514Y-75.404
X81.546Y-18.508
X81.546Y-68.343
X81.952Y-25.518
X81.952Y-75.353
T2
X20.93Y-28.007
X20.93Y-77.842
X25.93Y-28.007
X25.93Y-77.842
X28.51Y-17.212
X28.51Y-24.832
X28.51Y-67.047
X28.51Y-74.667
X28.881Y-39.31
X28.881Y-42.612
X28.881Y-89.145
X28.881Y-92.447
X29.181Y-28.607
X29.181Y-36.227
X29.181Y-78.442
X29.181Y-86.062
X31.721Y-28.607
X31.721Y-36.227
X31.721Y-78.442
X31.721Y-86.062
X31.939Y-17.212
X31.939Y-24.832
X31.939Y-67.047
X31.939Y-74.667
X32.066Y-45.827
X32.066Y-50.827
X32.066Y-95.662
X32.066Y-100.662
X34.261Y-28.607
X34.261Y-36.227
X34.261Y-78.442
X34.261Y-86.062
X35.368Y-17.212
X35.368Y-24.832
X35.368Y-67.047
X35.368Y-74.667
X35.905Y-45.787
X35.905Y-48.327
X35.905Y-50.867
X35.905Y-53.407
X35.905Y-55.947
X35.905Y-58.487
X35.905Y-61.027
X35.905Y-63.567
X35.905Y-95.622
X35.905Y-98.162
X35.905Y-100.702
X35.905Y-103.242
X35.905Y-105.782
X35.905Y-108.322
X35.905Y-110.862
X35.905Y-113.402
X36.501Y-39.31
X36.501Y-42.612
X36.501Y-89.145
X36.501Y-92.447
X36.801Y-28.607
X36.801Y-36.227
X36.801Y-78.442
X36.801Y-86.062
X39.636Y-33.087
X39.636Y-40.707
X39.636Y-82.922
X39.636Y-90.542
X41.21Y-55.947
X41.21Y-63.567
X41.21Y-105.782
X41.21Y-113.402
X42.836Y-33.087
X42.836Y-40.707
X42.836Y-82.922
X42.836Y-90.542
X44.893Y-55.947
X44.893Y-63.567
X44.893Y-105.782
X44.893Y-113.402
X53.939Y-45.787
X53.939Y-48.327
X53.939Y-50.867
X53.939Y-53.407
X53.939Y-55.947
X53.939Y-58.487
X53.939Y-61.027
X53.939Y-63.567
X53.939Y-95.622
X53.939Y-98.162
X53.939Y-100.702
X53.939Y-103.242
X53.939Y-105.782
X53.939Y-108.322
X53.939Y-110.862
X53.939Y-113.402
X54.291Y-21.149
X54.291Y-28.769
X54.291Y-70.984
X54.291Y-78.604
X61.327Y-21.607
X61.327Y-29.227
X61.327Y-71.441
X61.327Y-79.061
X62.242Y-40.606
X62.242Y-43.146
X62.242Y-45.686
X62.242Y-48.226
X62.242Y-90.441
X62.242Y-92.981
X62.242Y-95.521
X62.242Y-98.061
X62.496Y-32.304
X62.496Y-37.304
X62.496Y-82.139
X62.496Y-87.139
X64.477Y-21.607
X64.477Y-29.227
X64.477Y-71.441
X64.477Y-79.061
X67.83Y-24.502
X67.83Y-32.122
X67.83Y-74.337
X67.83Y-81.957
X69.862Y-40.606
X69.862Y-43.146
X69.862Y-45.686
X69.862Y-48.226
X69.862Y-90.441
X69.862Y-92.981
X69.862Y-95.521
X69.862Y-98.061
X70.014Y-32.416
X70.014Y-37.416
X70.014Y-82.251
X70.014Y-87.251
X98.513Y-18.649
X98.513Y-21.149
X98.513Y-68.484
X98.513Y-70.984
X101.866Y-49.279
X101.866Y-51.779
X101.866Y-99.113
X101.866Y-101.613
X103.542Y-17.227
X103.542Y-22.227
X103.542Y-67.062
X103.542Y-72.062
X106.946Y-49.242
X106.946Y-56.862
X106.946Y-99.077
X106.946Y-106.697
X110.248Y-50.806
X110.248Y-55.806
X110.248Y-100.641
X110.248Y-105.641
T3
X101.866Y-56.862
X101.866Y-59.402
X101.866Y-106.697
X101.866Y-109.237
T4
X24.548Y-18.208
X24.548Y-20.748
X24.548Y-68.043
X24.548Y-70.583
X48.17Y-33.9
X48.17Y-36.44
X48.17Y-38.98
X48.17Y-41.52
X48.17Y-83.735
X48.17Y-86.275
X48.17Y-88.815
X48.17Y-91.355
X50.711Y-33.9
X50.711Y-36.44
X50.711Y-38.98
X50.711Y-41.52
X50.711Y-83.735
X50.711Y-86.275
X50.711Y-88.815
X50.711Y-91.355
X53.252Y-33.9
X53.252Y-36.44
X53.252Y-38.98
X53.252Y-41.52
X53.252Y-83.735
X53.252Y-86.275
X53.252Y-88.815
X53.252Y-91.355
X58.101Y-22.927
X58.101Y-25.467
X58.101Y-28.007
X58.101Y-30.547
X58.101Y-33.087
X58.101Y-35.627
X58.101Y-38.167
X58.101Y-40.707
X58.101Y-43.247
X58.101Y-45.787
X58.101Y-48.327
X58.101Y-50.867
X58.101Y-53.407
X58.101Y-55.947
X58.101Y-58.487
X58.101Y-72.762
X58.101Y-75.302
X58.101Y-77.842
X58.101Y-80.382
X58.101Y-82.922
X58.101Y-85.462
X58.101Y-88.002
X58.101Y-90.542
X58.101Y-93.082
X58.101Y-95.622
X58.101Y-98.162
X58.101Y-100.702
X58.101Y-103.242
X58.101Y-105.782
X58.101Y-108.322
X65.391Y-54.677
X65.391Y-104.512
X67.931Y-54.677
X67.931Y-104.512
X73.341Y-22.927
X73.341Y-25.467
X73.341Y-28.007
X73.341Y-30.547
X73.341Y-33.087
X73.341Y-35.627
X73.341Y-38.167
X73.341Y-40.707
X73.341Y-43.247
X73.341Y-45.787
X73.341Y-48.327
X73.341Y-50.867
X73.341Y-53.407
X73.341Y-55.947
X73.341Y-58.487
X73.341Y-72.762
X73.341Y-75.302
X73.341Y-77.842
X73.341Y-80.382
X73.341Y-82.922
X73.341Y-85.462
X73.341Y-88.002
X73.341Y-90.542
X73.341Y-93.082
X73.341Y-95.622
X73.341Y-98.162
X73.341Y-100.702
X73.341Y-103.242
X73.341Y-105.782
X73.341Y-108.322
X77.126Y-20.184
X77.126Y-22.724
X77.126Y-70.019
X77.126Y-72.559
X77.583Y-36.633
X77.583Y-39.173
X77.583Y-41.713
X77.583Y-44.253
X77.583Y-51.995
X77.583Y-54.535
X77.583Y-57.075
X77.583Y-59.615
X77.583Y-86.468
X77.583Y-89.008
X77.583Y-91.548
X77.583Y-94.088
X77.583Y-101.83
X77.583Y-104.37
X77.583Y-106.91
X77.583Y-109.45
X80.072Y-59.605
X80.072Y-109.44
X80.124Y-36.633
X80.124Y-39.173
X80.124Y-41.713
X80.124Y-44.253
X80.124Y-86.468
X80.124Y-89.008
X80.124Y-91.548
X80.124Y-94.088
X80.174Y-51.995
X80.174Y-54.535
X80.174Y-57.075
X80.174Y-101.83
X80.174Y-104.37
X80.174Y-106.91
X82.614Y-51.995
X82.614Y-54.535
X82.614Y-57.075
X82.614Y-59.615
X82.614Y-101.83
X82.614Y-104.37
X82.614Y-106.91
X82.614Y-109.45
X82.663Y-36.633
X82.663Y-39.173
X82.663Y-41.713
X82.663Y-44.253
X82.663Y-86.468
X82.663Y-89.008
X82.663Y-91.548
X82.663Y-94.088
X89.115Y-36.786
X89.115Y-39.326
X89.115Y-41.866
X89.115Y-44.406
X89.115Y-86.621
X89.115Y-89.161
X89.115Y-91.701
X89.115Y-94.241
X89.149Y-52.015
X89.149Y-54.555
X89.149Y-57.095
X89.149Y-59.635
X89.149Y-101.85
X89.149Y-104.39
X89.149Y-106.93
X89.149Y-109.47
X91.706Y-52.015
X91.706Y-54.555
X91.706Y-57.095
X91.706Y-59.635
X91.706Y-101.85
X91.706Y-104.39
X91.706Y-106.93
X91.706Y-109.47
X94.246Y-52.015
X94.246Y-54.555
X94.246Y-57.095
X94.246Y-59.635
X94.246Y-101.85
X94.246Y-104.39
X94.246Y-106.93
X94.246Y-109.47
X97.09Y-25.874
X97.09Y-30.954
X97.09Y-75.709
X97.09Y-80.789
X102.17Y-25.874
X102.17Y-30.954
X102.17Y-75.709
X102.17Y-80.789
T5
X108.916Y-26.027
X108.916Y-28.567
X108.916Y-31.107
X108.916Y-75.862
X108.916Y-78.402
X108.916Y-80.942
T6
X20.89Y-32.96
X20.89Y-38.04
X20.89Y-44.39
X20.89Y-49.47
X20.89Y-82.795
X20.89Y-87.875
X20.89Y-94.225
X20.89Y-99.305
X26.478Y-59.122
X26.478Y-108.957
X31.558Y-59.122
X31.558Y-108.957
X85.254Y-21.454
X85.254Y-71.289
X90.334Y-21.454
X90.334Y-71.289
X106.793Y-37.913
X106.793Y-42.993
X106.793Y-87.748
X106.793Y-92.828
T0
M30
