%TF.GenerationSoftware,KiCad,Pcbnew,(6.0.11)*%
%TF.CreationDate,2023-10-15T10:12:36-04:00*%
%TF.ProjectId,MaxDuino_R1.4_Panelized,4d617844-7569-46e6-9f5f-52312e345f50,1.4*%
%TF.SameCoordinates,Original*%
%TF.FileFunction,Copper,L1,Top*%
%TF.FilePolarity,Positive*%
%FSLAX46Y46*%
G04 Gerber Fmt 4.6, Leading zero omitted, Abs format (unit mm)*
G04 Created by KiCad (PCBNEW (6.0.11)) date 2023-10-15 10:12:36*
%MOMM*%
%LPD*%
G01*
G04 APERTURE LIST*
G04 Aperture macros list*
%AMRoundRect*
0 Rectangle with rounded corners*
0 $1 Rounding radius*
0 $2 $3 $4 $5 $6 $7 $8 $9 X,Y pos of 4 corners*
0 Add a 4 corners polygon primitive as box body*
4,1,4,$2,$3,$4,$5,$6,$7,$8,$9,$2,$3,0*
0 Add four circle primitives for the rounded corners*
1,1,$1+$1,$2,$3*
1,1,$1+$1,$4,$5*
1,1,$1+$1,$6,$7*
1,1,$1+$1,$8,$9*
0 Add four rect primitives between the rounded corners*
20,1,$1+$1,$2,$3,$4,$5,0*
20,1,$1+$1,$4,$5,$6,$7,0*
20,1,$1+$1,$6,$7,$8,$9,0*
20,1,$1+$1,$8,$9,$2,$3,0*%
G04 Aperture macros list end*
%TA.AperFunction,ComponentPad*%
%ADD10R,1.600000X1.600000*%
%TD*%
%TA.AperFunction,ComponentPad*%
%ADD11O,1.600000X1.600000*%
%TD*%
%TA.AperFunction,ComponentPad*%
%ADD12C,1.600000*%
%TD*%
%TA.AperFunction,ComponentPad*%
%ADD13R,1.700000X1.700000*%
%TD*%
%TA.AperFunction,ComponentPad*%
%ADD14O,1.700000X1.700000*%
%TD*%
%TA.AperFunction,ComponentPad*%
%ADD15R,1.800000X1.800000*%
%TD*%
%TA.AperFunction,ComponentPad*%
%ADD16C,1.800000*%
%TD*%
%TA.AperFunction,ComponentPad*%
%ADD17R,2.600000X2.600000*%
%TD*%
%TA.AperFunction,ComponentPad*%
%ADD18C,2.600000*%
%TD*%
%TA.AperFunction,ComponentPad*%
%ADD19O,3.048000X1.524000*%
%TD*%
%TA.AperFunction,ComponentPad*%
%ADD20R,2.000000X2.000000*%
%TD*%
%TA.AperFunction,ComponentPad*%
%ADD21O,2.000000X2.000000*%
%TD*%
%TA.AperFunction,SMDPad,CuDef*%
%ADD22R,1.500000X1.000000*%
%TD*%
%TA.AperFunction,SMDPad,CuDef*%
%ADD23RoundRect,0.250000X0.450000X-0.262500X0.450000X0.262500X-0.450000X0.262500X-0.450000X-0.262500X0*%
%TD*%
%TA.AperFunction,ComponentPad*%
%ADD24R,1.308000X1.308000*%
%TD*%
%TA.AperFunction,ComponentPad*%
%ADD25C,1.308000*%
%TD*%
%TA.AperFunction,ViaPad*%
%ADD26C,0.800000*%
%TD*%
%TA.AperFunction,Conductor*%
%ADD27C,1.000000*%
%TD*%
%TA.AperFunction,Conductor*%
%ADD28C,0.250000*%
%TD*%
%TA.AperFunction,Conductor*%
%ADD29C,0.350000*%
%TD*%
%TA.AperFunction,Conductor*%
%ADD30C,0.200000*%
%TD*%
%TA.AperFunction,Conductor*%
%ADD31C,0.400000*%
%TD*%
%TA.AperFunction,Conductor*%
%ADD32C,0.500000*%
%TD*%
G04 APERTURE END LIST*
D10*
%TO.P,U2,1,NC*%
%TO.N,Board_0-unconnected-(U2-Pad1)*%
X69861600Y-48225800D03*
D11*
%TO.P,U2,2,A*%
%TO.N,Board_0-Net-(C5-Pad1)*%
X69861600Y-45685800D03*
%TO.P,U2,3,C*%
%TO.N,Board_0-DCC_in1*%
X69861600Y-43145800D03*
%TO.P,U2,4*%
%TO.N,N/C*%
X69861600Y-40605800D03*
%TO.P,U2,5,GND*%
%TO.N,Board_0-GND*%
X62241600Y-40605800D03*
%TO.P,U2,6,VO*%
%TO.N,Board_0-DCC_Sig*%
X62241600Y-43145800D03*
%TO.P,U2,7,EN*%
%TO.N,Board_0-unconnected-(U2-Pad7)*%
X62241600Y-45685800D03*
%TO.P,U2,8,VCC*%
%TO.N,Board_0-+5V*%
X62241600Y-48225800D03*
%TD*%
D10*
%TO.P,C1,1*%
%TO.N,Board_0-Vin*%
X98512800Y-21149400D03*
D12*
%TO.P,C1,2*%
%TO.N,Board_0-GND*%
X98512800Y-18649400D03*
%TD*%
D13*
%TO.P,J7-2,1,Pin_1*%
%TO.N,Board_1-+5V*%
X80124000Y-94088200D03*
D14*
%TO.P,J7-2,2,Pin_2*%
X80124000Y-91548200D03*
%TO.P,J7-2,3,Pin_3*%
X80124000Y-89008200D03*
%TO.P,J7-2,4,Pin_4*%
X80124000Y-86468200D03*
%TD*%
D13*
%TO.P,J5-2,1,Pin_1*%
%TO.N,Board_1-+5V*%
X91705600Y-101849800D03*
D14*
%TO.P,J5-2,2,Pin_2*%
X91705600Y-104389800D03*
%TO.P,J5-2,3,Pin_3*%
X91705600Y-106929800D03*
%TO.P,J5-2,4,Pin_4*%
X91705600Y-109469800D03*
%TD*%
D10*
%TO.P,D2,1,K*%
%TO.N,Board_0-Net-(C5-Pad1)*%
X67829600Y-32122200D03*
D11*
%TO.P,D2,2,A*%
%TO.N,Board_0-DCC_in1*%
X67829600Y-24502200D03*
%TD*%
D12*
%TO.P,C2,1*%
%TO.N,Board_1-Vin*%
X103542000Y-72061800D03*
%TO.P,C2,2*%
%TO.N,Board_1-GND*%
X103542000Y-67061800D03*
%TD*%
D13*
%TO.P,J8,1,Pin_1*%
%TO.N,Board_0-A4 {slash} I2C SDA*%
X89114800Y-44405800D03*
D14*
%TO.P,J8,2,Pin_2*%
%TO.N,Board_0-A5 {slash} I2C SCL*%
X89114800Y-41865800D03*
%TO.P,J8,3,Pin_3*%
%TO.N,Board_0-+5V*%
X89114800Y-39325800D03*
%TO.P,J8,4,Pin_4*%
%TO.N,Board_0-GND*%
X89114800Y-36785800D03*
%TD*%
D12*
%TO.P,R7,1*%
%TO.N,Board_1-Net-(JR1-Pad2)*%
X28510400Y-67047200D03*
D11*
%TO.P,R7,2*%
%TO.N,Board_1-Net-(J5-Pad1)*%
X28510400Y-74667200D03*
%TD*%
D15*
%TO.P,D3,1,K*%
%TO.N,Board_0-GND*%
X101865600Y-59401800D03*
D16*
%TO.P,D3,2,A*%
%TO.N,Board_0-Net-(D3-Pad2)*%
X101865600Y-56861800D03*
%TD*%
D17*
%TO.P,J6,1,Pin_1*%
%TO.N,Board_1-Net-(J5-Pad1)*%
X20890400Y-82795200D03*
D18*
%TO.P,J6,2,Pin_2*%
%TO.N,Board_1-Net-(J5-Pad2)*%
X20890400Y-87875200D03*
%TD*%
D17*
%TO.P,J4,1,Pin_1*%
%TO.N,Board_1-Net-(J4-Pad1)*%
X26478400Y-108957200D03*
D18*
%TO.P,J4,2,Pin_2*%
%TO.N,Board_1-Net-(J4-Pad2)*%
X31558400Y-108957200D03*
%TD*%
D12*
%TO.P,R13,1*%
%TO.N,Board_1-D4*%
X42836000Y-90542200D03*
D11*
%TO.P,R13,2*%
%TO.N,Board_1-Net-(D4-Pad2)*%
X42836000Y-82922200D03*
%TD*%
D13*
%TO.P,J6-3,1,Pin_1*%
%TO.N,Board_0-GND*%
X82614400Y-51995000D03*
D14*
%TO.P,J6-3,2,Pin_2*%
X82614400Y-54535000D03*
%TO.P,J6-3,3,Pin_3*%
X82614400Y-57075000D03*
%TO.P,J6-3,4,Pin_4*%
X82614400Y-59615000D03*
%TD*%
D10*
%TO.P,C4,1*%
%TO.N,Board_1-+5V*%
X101865600Y-99113421D03*
D12*
%TO.P,C4,2*%
%TO.N,Board_1-GND*%
X101865600Y-101613421D03*
%TD*%
%TO.P,R3,1*%
%TO.N,Board_1-GND*%
X39635600Y-90542200D03*
D11*
%TO.P,R3,2*%
%TO.N,Board_1-D2 DE*%
X39635600Y-82922200D03*
%TD*%
D13*
%TO.P,J8,1,Pin_1*%
%TO.N,Board_1-A4 {slash} I2C SDA*%
X89114800Y-94240600D03*
D14*
%TO.P,J8,2,Pin_2*%
%TO.N,Board_1-A5 {slash} I2C SCL*%
X89114800Y-91700600D03*
%TO.P,J8,3,Pin_3*%
%TO.N,Board_1-+5V*%
X89114800Y-89160600D03*
%TO.P,J8,4,Pin_4*%
%TO.N,Board_1-GND*%
X89114800Y-86620600D03*
%TD*%
D13*
%TO.P,JR1,1,Pin_1*%
%TO.N,Board_0-Net-(J5-Pad2)*%
X24548000Y-20748000D03*
D14*
%TO.P,JR1,2,Pin_2*%
%TO.N,Board_0-Net-(JR1-Pad2)*%
X24548000Y-18208000D03*
%TD*%
D10*
%TO.P,A1,1,D1/TX*%
%TO.N,Board_1-D1{slash}Tx*%
X58101400Y-72762200D03*
D11*
%TO.P,A1,2,D0/RX*%
%TO.N,Board_1-D0{slash}Rx*%
X58101400Y-75302200D03*
%TO.P,A1,3,~{RESET}*%
%TO.N,Board_1-unconnected-(A1-Pad3)*%
X58101400Y-77842200D03*
%TO.P,A1,4,GND*%
%TO.N,Board_1-GND*%
X58101400Y-80382200D03*
%TO.P,A1,5,D2*%
%TO.N,Board_1-D2 DE*%
X58101400Y-82922200D03*
%TO.P,A1,6,D3*%
%TO.N,Board_1-DCC_Sig*%
X58101400Y-85462200D03*
%TO.P,A1,7,D4*%
%TO.N,Board_1-D4*%
X58101400Y-88002200D03*
%TO.P,A1,8,D5*%
%TO.N,Board_1-D5 RE*%
X58101400Y-90542200D03*
%TO.P,A1,9,D6*%
%TO.N,Board_1-D6-PWM*%
X58101400Y-93082200D03*
%TO.P,A1,10,D7*%
%TO.N,Board_1-D7*%
X58101400Y-95622200D03*
%TO.P,A1,11,D8*%
%TO.N,Board_1-D8*%
X58101400Y-98162200D03*
%TO.P,A1,12,D9*%
%TO.N,Board_1-D9-PWM*%
X58101400Y-100702200D03*
%TO.P,A1,13,D10*%
%TO.N,Board_1-D10*%
X58101400Y-103242200D03*
%TO.P,A1,14,D11*%
%TO.N,Board_1-D11*%
X58101400Y-105782200D03*
%TO.P,A1,15,D12*%
%TO.N,Board_1-D12*%
X58101400Y-108322200D03*
%TO.P,A1,16,D13*%
%TO.N,Board_1-D13*%
X73341400Y-108322200D03*
%TO.P,A1,17,3V3*%
%TO.N,Board_1-unconnected-(A1-Pad17)*%
X73341400Y-105782200D03*
%TO.P,A1,18,AREF*%
%TO.N,Board_1-unconnected-(A1-Pad18)*%
X73341400Y-103242200D03*
%TO.P,A1,19,A0*%
%TO.N,Board_1-A0*%
X73341400Y-100702200D03*
%TO.P,A1,20,A1*%
%TO.N,Board_1-A1*%
X73341400Y-98162200D03*
%TO.P,A1,21,A2*%
%TO.N,Board_1-A2*%
X73341400Y-95622200D03*
%TO.P,A1,22,A3*%
%TO.N,Board_1-A3*%
X73341400Y-93082200D03*
%TO.P,A1,23,A4*%
%TO.N,Board_1-A4 {slash} I2C SDA*%
X73341400Y-90542200D03*
%TO.P,A1,24,A5*%
%TO.N,Board_1-A5 {slash} I2C SCL*%
X73341400Y-88002200D03*
%TO.P,A1,25,A6*%
%TO.N,Board_1-A6*%
X73341400Y-85462200D03*
%TO.P,A1,26,A7*%
%TO.N,Board_1-A7*%
X73341400Y-82922200D03*
%TO.P,A1,27,+5V*%
%TO.N,Board_1-+5V*%
X73341400Y-80382200D03*
%TO.P,A1,28,~{RESET}*%
%TO.N,Board_1-unconnected-(A1-Pad28)*%
X73341400Y-77842200D03*
%TO.P,A1,29,GND*%
%TO.N,Board_1-GND*%
X73341400Y-75302200D03*
%TO.P,A1,30,VIN*%
%TO.N,Board_1-VIN2*%
X73341400Y-72762200D03*
%TD*%
D13*
%TO.P,J2,1,Pin_1*%
%TO.N,Board_0-DCC_in2*%
X67931200Y-54677400D03*
D14*
%TO.P,J2,2,Pin_2*%
%TO.N,Board_0-DCC_in1*%
X65391200Y-54677400D03*
%TD*%
D13*
%TO.P,J5-1,1,Pin_1*%
%TO.N,Board_0-unconnected-(J5-1-Pad1)*%
X89149200Y-52015000D03*
D14*
%TO.P,J5-1,2,Pin_2*%
%TO.N,Board_0-D13*%
X89149200Y-54555000D03*
%TO.P,J5-1,3,Pin_3*%
%TO.N,Board_0-D9-PWM*%
X89149200Y-57095000D03*
%TO.P,J5-1,4,Pin_4*%
%TO.N,Board_0-D8*%
X89149200Y-59635000D03*
%TD*%
D12*
%TO.P,C6,1*%
%TO.N,Board_1-+5V*%
X32066400Y-95662200D03*
%TO.P,C6,2*%
%TO.N,Board_1-GND*%
X32066400Y-100662200D03*
%TD*%
%TO.P,C8,1*%
%TO.N,Board_0-+5V*%
X62495600Y-37303800D03*
%TO.P,C8,2*%
%TO.N,Board_0-GND*%
X62495600Y-32303800D03*
%TD*%
%TO.P,C8,1*%
%TO.N,Board_1-+5V*%
X62495600Y-87138600D03*
%TO.P,C8,2*%
%TO.N,Board_1-GND*%
X62495600Y-82138600D03*
%TD*%
%TO.P,C3,1*%
%TO.N,Board_0-+5V*%
X110247600Y-50805800D03*
%TO.P,C3,2*%
%TO.N,Board_0-GND*%
X110247600Y-55805800D03*
%TD*%
D13*
%TO.P,J6-2,1,Pin_1*%
%TO.N,Board_1-+5V*%
X80174400Y-101829800D03*
D14*
%TO.P,J6-2,2,Pin_2*%
X80174400Y-104369800D03*
%TO.P,J6-2,3,Pin_3*%
X80174400Y-106909800D03*
%TO.P,J6-2,4,Pin_4*%
X80072400Y-109439800D03*
%TD*%
D12*
%TO.P,R7,1*%
%TO.N,Board_0-Net-(JR1-Pad2)*%
X28510400Y-17212400D03*
D11*
%TO.P,R7,2*%
%TO.N,Board_0-Net-(J5-Pad1)*%
X28510400Y-24832400D03*
%TD*%
D19*
%TO.P,U1,1,IN*%
%TO.N,Board_1-Vin*%
X108916100Y-75861890D03*
%TO.P,U1,2,GND*%
%TO.N,Board_1-GND*%
X108916100Y-78401890D03*
%TO.P,U1,3,OUT*%
%TO.N,Board_1-+5V*%
X108916100Y-80941890D03*
%TD*%
D13*
%TO.P,J7-1,1,Pin_1*%
%TO.N,Board_0-A4 {slash} I2C SDA*%
X77583200Y-44253400D03*
D14*
%TO.P,J7-1,2,Pin_2*%
%TO.N,Board_0-A5 {slash} I2C SCL*%
X77583200Y-41713400D03*
%TO.P,J7-1,3,Pin_3*%
%TO.N,Board_0-A6*%
X77583200Y-39173400D03*
%TO.P,J7-1,4,Pin_4*%
%TO.N,Board_0-A7*%
X77583200Y-36633400D03*
%TD*%
D12*
%TO.P,R6,1*%
%TO.N,Board_0-Net-(R5-Pad2)*%
X41210400Y-55947400D03*
D11*
%TO.P,R6,2*%
%TO.N,Board_0-GND*%
X41210400Y-63567400D03*
%TD*%
D12*
%TO.P,R10,1*%
%TO.N,Board_0-D0{slash}Rx*%
X54291400Y-28769400D03*
D11*
%TO.P,R10,2*%
%TO.N,Board_0-+5V*%
X54291400Y-21149400D03*
%TD*%
D17*
%TO.P,J1,1,Pin_1*%
%TO.N,Board_1-DCC_in1*%
X90334000Y-71289000D03*
D18*
%TO.P,J1,2,Pin_2*%
%TO.N,Board_1-DCC_in2*%
X85254000Y-71289000D03*
%TD*%
D12*
%TO.P,R4,1*%
%TO.N,Board_0-DCC_Sig*%
X61327200Y-29226600D03*
D11*
%TO.P,R4,2*%
%TO.N,Board_0-+5V*%
X61327200Y-21606600D03*
%TD*%
D20*
%TO.P,D1,1,+*%
%TO.N,Board_1-Vin*%
X102170400Y-75708600D03*
D21*
%TO.P,D1,2*%
%TO.N,Board_1-DCC_in2*%
X97090400Y-75708600D03*
%TO.P,D1,3,-*%
%TO.N,Board_1-GND*%
X97090400Y-80788600D03*
%TO.P,D1,4*%
%TO.N,Board_1-DCC_in1*%
X102170400Y-80788600D03*
%TD*%
D10*
%TO.P,U3,1,RO*%
%TO.N,Board_0-D0{slash}Rx*%
X29180800Y-36227000D03*
D11*
%TO.P,U3,2,~{RE}*%
%TO.N,Board_0-D5 RE*%
X31720800Y-36227000D03*
%TO.P,U3,3,DE*%
%TO.N,Board_0-D2 DE*%
X34260800Y-36227000D03*
%TO.P,U3,4,DI*%
%TO.N,Board_0-D1{slash}Tx*%
X36800800Y-36227000D03*
%TO.P,U3,5,GND*%
%TO.N,Board_0-GND*%
X36800800Y-28607000D03*
%TO.P,U3,6,A*%
%TO.N,Board_0-Net-(J5-Pad2)*%
X34260800Y-28607000D03*
%TO.P,U3,7,B*%
%TO.N,Board_0-Net-(J5-Pad1)*%
X31720800Y-28607000D03*
%TO.P,U3,8,VCC*%
%TO.N,Board_0-+5V*%
X29180800Y-28607000D03*
%TD*%
D12*
%TO.P,R9,1*%
%TO.N,Board_1-Net-(J5-Pad1)*%
X35368400Y-74667200D03*
D11*
%TO.P,R9,2*%
%TO.N,Board_1-GND*%
X35368400Y-67047200D03*
%TD*%
D17*
%TO.P,J5,1,Pin_1*%
%TO.N,Board_0-Net-(J5-Pad1)*%
X20890400Y-44390400D03*
D18*
%TO.P,J5,2,Pin_2*%
%TO.N,Board_0-Net-(J5-Pad2)*%
X20890400Y-49470400D03*
%TD*%
D20*
%TO.P,D1,1,+*%
%TO.N,Board_0-Vin*%
X102170400Y-25873800D03*
D21*
%TO.P,D1,2*%
%TO.N,Board_0-DCC_in2*%
X97090400Y-25873800D03*
%TO.P,D1,3,-*%
%TO.N,Board_0-GND*%
X97090400Y-30953800D03*
%TO.P,D1,4*%
%TO.N,Board_0-DCC_in1*%
X102170400Y-30953800D03*
%TD*%
D12*
%TO.P,R2,1*%
%TO.N,Board_0-DCC_in2*%
X64476800Y-21606600D03*
D11*
%TO.P,R2,2*%
%TO.N,Board_0-Net-(C5-Pad1)*%
X64476800Y-29226600D03*
%TD*%
D13*
%TO.P,J6-1,1,Pin_1*%
%TO.N,Board_0-A3*%
X77583200Y-51995000D03*
D14*
%TO.P,J6-1,2,Pin_2*%
%TO.N,Board_0-A2*%
X77583200Y-54535000D03*
%TO.P,J6-1,3,Pin_3*%
%TO.N,Board_0-A1*%
X77583200Y-57075000D03*
%TO.P,J6-1,4,Pin_4*%
%TO.N,Board_0-A0*%
X77583200Y-59615000D03*
%TD*%
D22*
%TO.P,D4,1,VSS*%
%TO.N,Board_0-GND*%
X41605200Y-26813800D03*
%TO.P,D4,2,DIN*%
%TO.N,Board_0-Net-(D4-Pad2)*%
X41605200Y-30013800D03*
%TO.P,D4,3,VDD*%
%TO.N,Board_0-+5V*%
X46505200Y-30013800D03*
%TO.P,D4,4,DO*%
%TO.N,Board_0-D4-Hdr*%
X46505200Y-26813800D03*
%TD*%
D17*
%TO.P,J1,1,Pin_1*%
%TO.N,Board_0-DCC_in1*%
X90334000Y-21454200D03*
D18*
%TO.P,J1,2,Pin_2*%
%TO.N,Board_0-DCC_in2*%
X85254000Y-21454200D03*
%TD*%
D17*
%TO.P,J6,1,Pin_1*%
%TO.N,Board_0-Net-(J5-Pad1)*%
X20890400Y-32960400D03*
D18*
%TO.P,J6,2,Pin_2*%
%TO.N,Board_0-Net-(J5-Pad2)*%
X20890400Y-38040400D03*
%TD*%
D13*
%TO.P,J4-2,1,Pin_1*%
%TO.N,Board_1-+5V*%
X50710800Y-91355000D03*
D14*
%TO.P,J4-2,2,Pin_2*%
X50710800Y-88815000D03*
%TO.P,J4-2,3,Pin_3*%
X50710800Y-86275000D03*
%TO.P,J4-2,4,Pin_4*%
X50710800Y-83735000D03*
%TD*%
D12*
%TO.P,R10,1*%
%TO.N,Board_1-D0{slash}Rx*%
X54291400Y-78604200D03*
D11*
%TO.P,R10,2*%
%TO.N,Board_1-+5V*%
X54291400Y-70984200D03*
%TD*%
D12*
%TO.P,R4,1*%
%TO.N,Board_1-DCC_Sig*%
X61327200Y-79061400D03*
D11*
%TO.P,R4,2*%
%TO.N,Board_1-+5V*%
X61327200Y-71441400D03*
%TD*%
D13*
%TO.P,J7-1,1,Pin_1*%
%TO.N,Board_1-A4 {slash} I2C SDA*%
X77583200Y-94088200D03*
D14*
%TO.P,J7-1,2,Pin_2*%
%TO.N,Board_1-A5 {slash} I2C SCL*%
X77583200Y-91548200D03*
%TO.P,J7-1,3,Pin_3*%
%TO.N,Board_1-A6*%
X77583200Y-89008200D03*
%TO.P,J7-1,4,Pin_4*%
%TO.N,Board_1-A7*%
X77583200Y-86468200D03*
%TD*%
D13*
%TO.P,J6-1,1,Pin_1*%
%TO.N,Board_1-A3*%
X77583200Y-101829800D03*
D14*
%TO.P,J6-1,2,Pin_2*%
%TO.N,Board_1-A2*%
X77583200Y-104369800D03*
%TO.P,J6-1,3,Pin_3*%
%TO.N,Board_1-A1*%
X77583200Y-106909800D03*
%TO.P,J6-1,4,Pin_4*%
%TO.N,Board_1-A0*%
X77583200Y-109449800D03*
%TD*%
D12*
%TO.P,R5,1*%
%TO.N,Board_0-D11*%
X44893400Y-63567400D03*
D11*
%TO.P,R5,2*%
%TO.N,Board_0-Net-(R5-Pad2)*%
X44893400Y-55947400D03*
%TD*%
D12*
%TO.P,R2,1*%
%TO.N,Board_1-DCC_in2*%
X64476800Y-71441400D03*
D11*
%TO.P,R2,2*%
%TO.N,Board_1-Net-(C5-Pad1)*%
X64476800Y-79061400D03*
%TD*%
D10*
%TO.P,A1,1,D1/TX*%
%TO.N,Board_0-D1{slash}Tx*%
X58101400Y-22927400D03*
D11*
%TO.P,A1,2,D0/RX*%
%TO.N,Board_0-D0{slash}Rx*%
X58101400Y-25467400D03*
%TO.P,A1,3,~{RESET}*%
%TO.N,Board_0-unconnected-(A1-Pad3)*%
X58101400Y-28007400D03*
%TO.P,A1,4,GND*%
%TO.N,Board_0-GND*%
X58101400Y-30547400D03*
%TO.P,A1,5,D2*%
%TO.N,Board_0-D2 DE*%
X58101400Y-33087400D03*
%TO.P,A1,6,D3*%
%TO.N,Board_0-DCC_Sig*%
X58101400Y-35627400D03*
%TO.P,A1,7,D4*%
%TO.N,Board_0-D4*%
X58101400Y-38167400D03*
%TO.P,A1,8,D5*%
%TO.N,Board_0-D5 RE*%
X58101400Y-40707400D03*
%TO.P,A1,9,D6*%
%TO.N,Board_0-D6-PWM*%
X58101400Y-43247400D03*
%TO.P,A1,10,D7*%
%TO.N,Board_0-D7*%
X58101400Y-45787400D03*
%TO.P,A1,11,D8*%
%TO.N,Board_0-D8*%
X58101400Y-48327400D03*
%TO.P,A1,12,D9*%
%TO.N,Board_0-D9-PWM*%
X58101400Y-50867400D03*
%TO.P,A1,13,D10*%
%TO.N,Board_0-D10*%
X58101400Y-53407400D03*
%TO.P,A1,14,D11*%
%TO.N,Board_0-D11*%
X58101400Y-55947400D03*
%TO.P,A1,15,D12*%
%TO.N,Board_0-D12*%
X58101400Y-58487400D03*
%TO.P,A1,16,D13*%
%TO.N,Board_0-D13*%
X73341400Y-58487400D03*
%TO.P,A1,17,3V3*%
%TO.N,Board_0-unconnected-(A1-Pad17)*%
X73341400Y-55947400D03*
%TO.P,A1,18,AREF*%
%TO.N,Board_0-unconnected-(A1-Pad18)*%
X73341400Y-53407400D03*
%TO.P,A1,19,A0*%
%TO.N,Board_0-A0*%
X73341400Y-50867400D03*
%TO.P,A1,20,A1*%
%TO.N,Board_0-A1*%
X73341400Y-48327400D03*
%TO.P,A1,21,A2*%
%TO.N,Board_0-A2*%
X73341400Y-45787400D03*
%TO.P,A1,22,A3*%
%TO.N,Board_0-A3*%
X73341400Y-43247400D03*
%TO.P,A1,23,A4*%
%TO.N,Board_0-A4 {slash} I2C SDA*%
X73341400Y-40707400D03*
%TO.P,A1,24,A5*%
%TO.N,Board_0-A5 {slash} I2C SCL*%
X73341400Y-38167400D03*
%TO.P,A1,25,A6*%
%TO.N,Board_0-A6*%
X73341400Y-35627400D03*
%TO.P,A1,26,A7*%
%TO.N,Board_0-A7*%
X73341400Y-33087400D03*
%TO.P,A1,27,+5V*%
%TO.N,Board_0-+5V*%
X73341400Y-30547400D03*
%TO.P,A1,28,~{RESET}*%
%TO.N,Board_0-unconnected-(A1-Pad28)*%
X73341400Y-28007400D03*
%TO.P,A1,29,GND*%
%TO.N,Board_0-GND*%
X73341400Y-25467400D03*
%TO.P,A1,30,VIN*%
%TO.N,Board_0-VIN2*%
X73341400Y-22927400D03*
%TD*%
D13*
%TO.P,J2,1,Pin_1*%
%TO.N,Board_1-DCC_in2*%
X67931200Y-104512200D03*
D14*
%TO.P,J2,2,Pin_2*%
%TO.N,Board_1-DCC_in1*%
X65391200Y-104512200D03*
%TD*%
D22*
%TO.P,D4,1,VSS*%
%TO.N,Board_1-GND*%
X41605200Y-76648600D03*
%TO.P,D4,2,DIN*%
%TO.N,Board_1-Net-(D4-Pad2)*%
X41605200Y-79848600D03*
%TO.P,D4,3,VDD*%
%TO.N,Board_1-+5V*%
X46505200Y-79848600D03*
%TO.P,D4,4,DO*%
%TO.N,Board_1-D4-Hdr*%
X46505200Y-76648600D03*
%TD*%
D12*
%TO.P,R8,1*%
%TO.N,Board_0-+5V*%
X31939400Y-24832400D03*
D11*
%TO.P,R8,2*%
%TO.N,Board_0-Net-(J5-Pad2)*%
X31939400Y-17212400D03*
%TD*%
D12*
%TO.P,R13,1*%
%TO.N,Board_0-D4*%
X42836000Y-40707400D03*
D11*
%TO.P,R13,2*%
%TO.N,Board_0-Net-(D4-Pad2)*%
X42836000Y-33087400D03*
%TD*%
D12*
%TO.P,R3,1*%
%TO.N,Board_0-GND*%
X39635600Y-40707400D03*
D11*
%TO.P,R3,2*%
%TO.N,Board_0-D2 DE*%
X39635600Y-33087400D03*
%TD*%
D12*
%TO.P,R12,1*%
%TO.N,Board_0-D1{slash}Tx*%
X36501400Y-39310400D03*
D11*
%TO.P,R12,2*%
%TO.N,Board_0-+5V*%
X28881400Y-39310400D03*
%TD*%
D13*
%TO.P,J3,1,Pin_1*%
%TO.N,Board_1-VIN2*%
X77126000Y-72559000D03*
D14*
%TO.P,J3,2,Pin_2*%
%TO.N,Board_1-Vin*%
X77126000Y-70019000D03*
%TD*%
D12*
%TO.P,R11,1*%
%TO.N,Board_0-D5 RE*%
X36501400Y-42612400D03*
D11*
%TO.P,R11,2*%
%TO.N,Board_0-+5V*%
X28881400Y-42612400D03*
%TD*%
D10*
%TO.P,C1,1*%
%TO.N,Board_1-Vin*%
X98512800Y-70984200D03*
D12*
%TO.P,C1,2*%
%TO.N,Board_1-GND*%
X98512800Y-68484200D03*
%TD*%
D13*
%TO.P,J4-3,1,Pin_1*%
%TO.N,Board_0-GND*%
X48170000Y-41520200D03*
D14*
%TO.P,J4-3,2,Pin_2*%
X48170000Y-38980200D03*
%TO.P,J4-3,3,Pin_3*%
X48170000Y-36440200D03*
%TO.P,J4-3,4,Pin_4*%
X48170000Y-33900200D03*
%TD*%
D12*
%TO.P,R11,1*%
%TO.N,Board_1-D5 RE*%
X36501400Y-92447200D03*
D11*
%TO.P,R11,2*%
%TO.N,Board_1-+5V*%
X28881400Y-92447200D03*
%TD*%
D13*
%TO.P,J3,1,Pin_1*%
%TO.N,Board_0-VIN2*%
X77126000Y-22724200D03*
D14*
%TO.P,J3,2,Pin_2*%
%TO.N,Board_0-Vin*%
X77126000Y-20184200D03*
%TD*%
D23*
%TO.P,R14,1*%
%TO.N,Board_1-D4*%
X55637600Y-87593900D03*
%TO.P,R14,2*%
%TO.N,Board_1-D4-Hdr*%
X55637600Y-85768900D03*
%TD*%
D12*
%TO.P,C7,1*%
%TO.N,Board_1-+5V*%
X25930400Y-77842200D03*
%TO.P,C7,2*%
%TO.N,Board_1-GND*%
X20930400Y-77842200D03*
%TD*%
D17*
%TO.P,J5,1,Pin_1*%
%TO.N,Board_1-Net-(J5-Pad1)*%
X20890400Y-94225200D03*
D18*
%TO.P,J5,2,Pin_2*%
%TO.N,Board_1-Net-(J5-Pad2)*%
X20890400Y-99305200D03*
%TD*%
D12*
%TO.P,R9,1*%
%TO.N,Board_0-Net-(J5-Pad1)*%
X35368400Y-24832400D03*
D11*
%TO.P,R9,2*%
%TO.N,Board_0-GND*%
X35368400Y-17212400D03*
%TD*%
D13*
%TO.P,J5-3,1,Pin_1*%
%TO.N,Board_0-GND*%
X94246400Y-52015000D03*
D14*
%TO.P,J5-3,2,Pin_2*%
X94246400Y-54555000D03*
%TO.P,J5-3,3,Pin_3*%
X94246400Y-57095000D03*
%TO.P,J5-3,4,Pin_4*%
X94246400Y-59635000D03*
%TD*%
D12*
%TO.P,C5,1*%
%TO.N,Board_0-Net-(C5-Pad1)*%
X70014000Y-37416200D03*
%TO.P,C5,2*%
%TO.N,Board_0-DCC_in1*%
X70014000Y-32416200D03*
%TD*%
D10*
%TO.P,C4,1*%
%TO.N,Board_0-+5V*%
X101865600Y-49278621D03*
D12*
%TO.P,C4,2*%
%TO.N,Board_0-GND*%
X101865600Y-51778621D03*
%TD*%
%TO.P,C7,1*%
%TO.N,Board_0-+5V*%
X25930400Y-28007400D03*
%TO.P,C7,2*%
%TO.N,Board_0-GND*%
X20930400Y-28007400D03*
%TD*%
D13*
%TO.P,J7-2,1,Pin_1*%
%TO.N,Board_0-+5V*%
X80124000Y-44253400D03*
D14*
%TO.P,J7-2,2,Pin_2*%
X80124000Y-41713400D03*
%TO.P,J7-2,3,Pin_3*%
X80124000Y-39173400D03*
%TO.P,J7-2,4,Pin_4*%
X80124000Y-36633400D03*
%TD*%
D23*
%TO.P,R14,1*%
%TO.N,Board_0-D4*%
X55637600Y-37759100D03*
%TO.P,R14,2*%
%TO.N,Board_0-D4-Hdr*%
X55637600Y-35934100D03*
%TD*%
D13*
%TO.P,J4-1,1,Pin_1*%
%TO.N,Board_1-D7*%
X53251600Y-91355000D03*
D14*
%TO.P,J4-1,2,Pin_2*%
%TO.N,Board_1-D6-PWM*%
X53251600Y-88815000D03*
%TO.P,J4-1,3,Pin_3*%
%TO.N,Board_1-D4-Hdr*%
X53251600Y-86275000D03*
%TO.P,J4-1,4,Pin_4*%
%TO.N,Board_1-DCC_Sig*%
X53251600Y-83735000D03*
%TD*%
D17*
%TO.P,J7,1,Pin_1*%
%TO.N,Board_1-+5V*%
X106793200Y-92828200D03*
D18*
%TO.P,J7,2,Pin_2*%
%TO.N,Board_1-GND*%
X106793200Y-87748200D03*
%TD*%
D15*
%TO.P,D3,1,K*%
%TO.N,Board_1-GND*%
X101865600Y-109236600D03*
D16*
%TO.P,D3,2,A*%
%TO.N,Board_1-Net-(D3-Pad2)*%
X101865600Y-106696600D03*
%TD*%
D12*
%TO.P,R6,1*%
%TO.N,Board_1-Net-(R5-Pad2)*%
X41210400Y-105782200D03*
D11*
%TO.P,R6,2*%
%TO.N,Board_1-GND*%
X41210400Y-113402200D03*
%TD*%
D13*
%TO.P,J6-2,1,Pin_1*%
%TO.N,Board_0-+5V*%
X80174400Y-51995000D03*
D14*
%TO.P,J6-2,2,Pin_2*%
X80174400Y-54535000D03*
%TO.P,J6-2,3,Pin_3*%
X80174400Y-57075000D03*
%TO.P,J6-2,4,Pin_4*%
X80072400Y-59605000D03*
%TD*%
D17*
%TO.P,J4,1,Pin_1*%
%TO.N,Board_0-Net-(J4-Pad1)*%
X26478400Y-59122400D03*
D18*
%TO.P,J4,2,Pin_2*%
%TO.N,Board_0-Net-(J4-Pad2)*%
X31558400Y-59122400D03*
%TD*%
D12*
%TO.P,R8,1*%
%TO.N,Board_1-+5V*%
X31939400Y-74667200D03*
D11*
%TO.P,R8,2*%
%TO.N,Board_1-Net-(J5-Pad2)*%
X31939400Y-67047200D03*
%TD*%
D12*
%TO.P,C6,1*%
%TO.N,Board_0-+5V*%
X32066400Y-45827400D03*
%TO.P,C6,2*%
%TO.N,Board_0-GND*%
X32066400Y-50827400D03*
%TD*%
D10*
%TO.P,D2,1,K*%
%TO.N,Board_1-Net-(C5-Pad1)*%
X67829600Y-81957000D03*
D11*
%TO.P,D2,2,A*%
%TO.N,Board_1-DCC_in1*%
X67829600Y-74337000D03*
%TD*%
D13*
%TO.P,J4-1,1,Pin_1*%
%TO.N,Board_0-D7*%
X53251600Y-41520200D03*
D14*
%TO.P,J4-1,2,Pin_2*%
%TO.N,Board_0-D6-PWM*%
X53251600Y-38980200D03*
%TO.P,J4-1,3,Pin_3*%
%TO.N,Board_0-D4-Hdr*%
X53251600Y-36440200D03*
%TO.P,J4-1,4,Pin_4*%
%TO.N,Board_0-DCC_Sig*%
X53251600Y-33900200D03*
%TD*%
D12*
%TO.P,C2,1*%
%TO.N,Board_0-Vin*%
X103542000Y-22227000D03*
%TO.P,C2,2*%
%TO.N,Board_0-GND*%
X103542000Y-17227000D03*
%TD*%
%TO.P,R12,1*%
%TO.N,Board_1-D1{slash}Tx*%
X36501400Y-89145200D03*
D11*
%TO.P,R12,2*%
%TO.N,Board_1-+5V*%
X28881400Y-89145200D03*
%TD*%
D13*
%TO.P,J7-3,1,Pin_1*%
%TO.N,Board_1-GND*%
X82663200Y-94088200D03*
D14*
%TO.P,J7-3,2,Pin_2*%
X82663200Y-91548200D03*
%TO.P,J7-3,3,Pin_3*%
X82663200Y-89008200D03*
%TO.P,J7-3,4,Pin_4*%
X82663200Y-86468200D03*
%TD*%
D13*
%TO.P,J4-3,1,Pin_1*%
%TO.N,Board_1-GND*%
X48170000Y-91355000D03*
D14*
%TO.P,J4-3,2,Pin_2*%
X48170000Y-88815000D03*
%TO.P,J4-3,3,Pin_3*%
X48170000Y-86275000D03*
%TO.P,J4-3,4,Pin_4*%
X48170000Y-83735000D03*
%TD*%
D13*
%TO.P,J5-3,1,Pin_1*%
%TO.N,Board_1-GND*%
X94246400Y-101849800D03*
D14*
%TO.P,J5-3,2,Pin_2*%
X94246400Y-104389800D03*
%TO.P,J5-3,3,Pin_3*%
X94246400Y-106929800D03*
%TO.P,J5-3,4,Pin_4*%
X94246400Y-109469800D03*
%TD*%
D13*
%TO.P,J5-2,1,Pin_1*%
%TO.N,Board_0-+5V*%
X91705600Y-52015000D03*
D14*
%TO.P,J5-2,2,Pin_2*%
X91705600Y-54555000D03*
%TO.P,J5-2,3,Pin_3*%
X91705600Y-57095000D03*
%TO.P,J5-2,4,Pin_4*%
X91705600Y-59635000D03*
%TD*%
D19*
%TO.P,U1,1,IN*%
%TO.N,Board_0-Vin*%
X108916100Y-26027090D03*
%TO.P,U1,2,GND*%
%TO.N,Board_0-GND*%
X108916100Y-28567090D03*
%TO.P,U1,3,OUT*%
%TO.N,Board_0-+5V*%
X108916100Y-31107090D03*
%TD*%
D12*
%TO.P,R1,1*%
%TO.N,Board_0-+5V*%
X106945600Y-49241800D03*
D11*
%TO.P,R1,2*%
%TO.N,Board_0-Net-(D3-Pad2)*%
X106945600Y-56861800D03*
%TD*%
D17*
%TO.P,J7,1,Pin_1*%
%TO.N,Board_0-+5V*%
X106793200Y-42993400D03*
D18*
%TO.P,J7,2,Pin_2*%
%TO.N,Board_0-GND*%
X106793200Y-37913400D03*
%TD*%
D10*
%TO.P,U3,1,RO*%
%TO.N,Board_1-D0{slash}Rx*%
X29180800Y-86061800D03*
D11*
%TO.P,U3,2,~{RE}*%
%TO.N,Board_1-D5 RE*%
X31720800Y-86061800D03*
%TO.P,U3,3,DE*%
%TO.N,Board_1-D2 DE*%
X34260800Y-86061800D03*
%TO.P,U3,4,DI*%
%TO.N,Board_1-D1{slash}Tx*%
X36800800Y-86061800D03*
%TO.P,U3,5,GND*%
%TO.N,Board_1-GND*%
X36800800Y-78441800D03*
%TO.P,U3,6,A*%
%TO.N,Board_1-Net-(J5-Pad2)*%
X34260800Y-78441800D03*
%TO.P,U3,7,B*%
%TO.N,Board_1-Net-(J5-Pad1)*%
X31720800Y-78441800D03*
%TO.P,U3,8,VCC*%
%TO.N,Board_1-+5V*%
X29180800Y-78441800D03*
%TD*%
D24*
%TO.P,U4,1,VCC*%
%TO.N,Board_1-+5V*%
X35904900Y-95622200D03*
D25*
%TO.P,U4,2,RX*%
%TO.N,Board_1-Net-(R5-Pad2)*%
X35904900Y-98162200D03*
%TO.P,U4,3,TX*%
%TO.N,Board_1-D10*%
X35904900Y-100702200D03*
%TO.P,U4,4,DAC_R*%
%TO.N,Board_1-unconnected-(U4-Pad4)*%
X35904900Y-103242200D03*
%TO.P,U4,5,DAC_L*%
%TO.N,Board_1-unconnected-(U4-Pad5)*%
X35904900Y-105782200D03*
%TO.P,U4,6,SPK1*%
%TO.N,Board_1-Net-(J4-Pad2)*%
X35904900Y-108322200D03*
%TO.P,U4,7,GND*%
%TO.N,Board_1-GND*%
X35904900Y-110862200D03*
%TO.P,U4,8,SPK2*%
%TO.N,Board_1-Net-(J4-Pad1)*%
X35904900Y-113402200D03*
%TO.P,U4,9,IO1*%
%TO.N,Board_1-unconnected-(U4-Pad9)*%
X53938900Y-113402200D03*
%TO.P,U4,10,GND*%
%TO.N,Board_1-GND*%
X53938900Y-110862200D03*
%TO.P,U4,11,IO2*%
%TO.N,Board_1-unconnected-(U4-Pad11)*%
X53938900Y-108322200D03*
%TO.P,U4,12,ADKEY1*%
%TO.N,Board_1-unconnected-(U4-Pad12)*%
X53938900Y-105782200D03*
%TO.P,U4,13,ADKEY2*%
%TO.N,Board_1-unconnected-(U4-Pad13)*%
X53938900Y-103242200D03*
%TO.P,U4,14,USB+*%
%TO.N,Board_1-unconnected-(U4-Pad14)*%
X53938900Y-100702200D03*
%TO.P,U4,15,USB-*%
%TO.N,Board_1-unconnected-(U4-Pad15)*%
X53938900Y-98162200D03*
%TO.P,U4,16,BUSY*%
%TO.N,Board_1-D12*%
X53938900Y-95622200D03*
%TD*%
D13*
%TO.P,J4-2,1,Pin_1*%
%TO.N,Board_0-+5V*%
X50710800Y-41520200D03*
D14*
%TO.P,J4-2,2,Pin_2*%
X50710800Y-38980200D03*
%TO.P,J4-2,3,Pin_3*%
X50710800Y-36440200D03*
%TO.P,J4-2,4,Pin_4*%
X50710800Y-33900200D03*
%TD*%
D12*
%TO.P,R1,1*%
%TO.N,Board_1-+5V*%
X106945600Y-99076600D03*
D11*
%TO.P,R1,2*%
%TO.N,Board_1-Net-(D3-Pad2)*%
X106945600Y-106696600D03*
%TD*%
D12*
%TO.P,C3,1*%
%TO.N,Board_1-+5V*%
X110247600Y-100640600D03*
%TO.P,C3,2*%
%TO.N,Board_1-GND*%
X110247600Y-105640600D03*
%TD*%
D13*
%TO.P,J5-1,1,Pin_1*%
%TO.N,Board_1-unconnected-(J5-1-Pad1)*%
X89149200Y-101849800D03*
D14*
%TO.P,J5-1,2,Pin_2*%
%TO.N,Board_1-D13*%
X89149200Y-104389800D03*
%TO.P,J5-1,3,Pin_3*%
%TO.N,Board_1-D9-PWM*%
X89149200Y-106929800D03*
%TO.P,J5-1,4,Pin_4*%
%TO.N,Board_1-D8*%
X89149200Y-109469800D03*
%TD*%
D13*
%TO.P,J6-3,1,Pin_1*%
%TO.N,Board_1-GND*%
X82614400Y-101829800D03*
D14*
%TO.P,J6-3,2,Pin_2*%
X82614400Y-104369800D03*
%TO.P,J6-3,3,Pin_3*%
X82614400Y-106909800D03*
%TO.P,J6-3,4,Pin_4*%
X82614400Y-109449800D03*
%TD*%
D10*
%TO.P,U2,1,NC*%
%TO.N,Board_1-unconnected-(U2-Pad1)*%
X69861600Y-98060600D03*
D11*
%TO.P,U2,2,A*%
%TO.N,Board_1-Net-(C5-Pad1)*%
X69861600Y-95520600D03*
%TO.P,U2,3,C*%
%TO.N,Board_1-DCC_in1*%
X69861600Y-92980600D03*
%TO.P,U2,4*%
%TO.N,N/C*%
X69861600Y-90440600D03*
%TO.P,U2,5,GND*%
%TO.N,Board_1-GND*%
X62241600Y-90440600D03*
%TO.P,U2,6,VO*%
%TO.N,Board_1-DCC_Sig*%
X62241600Y-92980600D03*
%TO.P,U2,7,EN*%
%TO.N,Board_1-unconnected-(U2-Pad7)*%
X62241600Y-95520600D03*
%TO.P,U2,8,VCC*%
%TO.N,Board_1-+5V*%
X62241600Y-98060600D03*
%TD*%
D13*
%TO.P,JR1,1,Pin_1*%
%TO.N,Board_1-Net-(J5-Pad2)*%
X24548000Y-70582800D03*
D14*
%TO.P,JR1,2,Pin_2*%
%TO.N,Board_1-Net-(JR1-Pad2)*%
X24548000Y-68042800D03*
%TD*%
D13*
%TO.P,J7-3,1,Pin_1*%
%TO.N,Board_0-GND*%
X82663200Y-44253400D03*
D14*
%TO.P,J7-3,2,Pin_2*%
X82663200Y-41713400D03*
%TO.P,J7-3,3,Pin_3*%
X82663200Y-39173400D03*
%TO.P,J7-3,4,Pin_4*%
X82663200Y-36633400D03*
%TD*%
D24*
%TO.P,U4,1,VCC*%
%TO.N,Board_0-+5V*%
X35904900Y-45787400D03*
D25*
%TO.P,U4,2,RX*%
%TO.N,Board_0-Net-(R5-Pad2)*%
X35904900Y-48327400D03*
%TO.P,U4,3,TX*%
%TO.N,Board_0-D10*%
X35904900Y-50867400D03*
%TO.P,U4,4,DAC_R*%
%TO.N,Board_0-unconnected-(U4-Pad4)*%
X35904900Y-53407400D03*
%TO.P,U4,5,DAC_L*%
%TO.N,Board_0-unconnected-(U4-Pad5)*%
X35904900Y-55947400D03*
%TO.P,U4,6,SPK1*%
%TO.N,Board_0-Net-(J4-Pad2)*%
X35904900Y-58487400D03*
%TO.P,U4,7,GND*%
%TO.N,Board_0-GND*%
X35904900Y-61027400D03*
%TO.P,U4,8,SPK2*%
%TO.N,Board_0-Net-(J4-Pad1)*%
X35904900Y-63567400D03*
%TO.P,U4,9,IO1*%
%TO.N,Board_0-unconnected-(U4-Pad9)*%
X53938900Y-63567400D03*
%TO.P,U4,10,GND*%
%TO.N,Board_0-GND*%
X53938900Y-61027400D03*
%TO.P,U4,11,IO2*%
%TO.N,Board_0-unconnected-(U4-Pad11)*%
X53938900Y-58487400D03*
%TO.P,U4,12,ADKEY1*%
%TO.N,Board_0-unconnected-(U4-Pad12)*%
X53938900Y-55947400D03*
%TO.P,U4,13,ADKEY2*%
%TO.N,Board_0-unconnected-(U4-Pad13)*%
X53938900Y-53407400D03*
%TO.P,U4,14,USB+*%
%TO.N,Board_0-unconnected-(U4-Pad14)*%
X53938900Y-50867400D03*
%TO.P,U4,15,USB-*%
%TO.N,Board_0-unconnected-(U4-Pad15)*%
X53938900Y-48327400D03*
%TO.P,U4,16,BUSY*%
%TO.N,Board_0-D12*%
X53938900Y-45787400D03*
%TD*%
D12*
%TO.P,R5,1*%
%TO.N,Board_1-D11*%
X44893400Y-113402200D03*
D11*
%TO.P,R5,2*%
%TO.N,Board_1-Net-(R5-Pad2)*%
X44893400Y-105782200D03*
%TD*%
D12*
%TO.P,C5,1*%
%TO.N,Board_1-Net-(C5-Pad1)*%
X70014000Y-87251000D03*
%TO.P,C5,2*%
%TO.N,Board_1-DCC_in1*%
X70014000Y-82251000D03*
%TD*%
D26*
%TO.N,Board_1-GND*%
X43394800Y-76623000D03*
%TO.N,Board_1-DCC_in2*%
X71284000Y-72813000D03*
X66458000Y-72762200D03*
X81952000Y-75353000D03*
X79513600Y-75403800D03*
%TO.N,Board_1-DCC_in1*%
X78954800Y-68393400D03*
X81545600Y-68342600D03*
X71334800Y-68241000D03*
X68540800Y-68241000D03*
%TO.N,Board_1-D1{slash}Tx*%
X52996000Y-74096100D03*
%TO.N,Board_0-GND*%
X43394800Y-26788200D03*
%TO.N,Board_0-DCC_in2*%
X71284000Y-22978200D03*
X66458000Y-22927400D03*
X81952000Y-25518200D03*
X79513600Y-25569000D03*
%TO.N,Board_0-DCC_in1*%
X78954800Y-18558600D03*
X81545600Y-18507800D03*
X71334800Y-18406200D03*
X68540800Y-18406200D03*
%TO.N,Board_0-D1{slash}Tx*%
X52996000Y-24261300D03*
%TD*%
D27*
%TO.N,Board_1-Vin*%
X108520400Y-74159200D02*
X106361400Y-72000200D01*
X103542000Y-72061800D02*
X102464400Y-70984200D01*
X80224800Y-66564600D02*
X80224800Y-69053800D01*
X103542000Y-74337000D02*
X103542000Y-72061800D01*
X80224800Y-69053800D02*
X79259600Y-70019000D01*
X79259600Y-70019000D02*
X77126000Y-70019000D01*
X102337400Y-70984200D02*
X96176000Y-70984200D01*
X108520400Y-75810200D02*
X108520400Y-74159200D01*
X106361400Y-72000200D02*
X103353400Y-72000200D01*
X96176000Y-70984200D02*
X95109200Y-69917400D01*
X102170400Y-75708600D02*
X103542000Y-74337000D01*
X95109200Y-66615400D02*
X80275600Y-66615400D01*
X95109200Y-69917400D02*
X95109200Y-66615400D01*
X103353400Y-72000200D02*
X102337400Y-70984200D01*
X102464400Y-70984200D02*
X98512800Y-70984200D01*
%TO.N,Board_1-VIN2*%
X76872000Y-72762200D02*
X73341400Y-72762200D01*
D28*
%TO.N,Board_1-Net-(R5-Pad2)*%
X41210400Y-105782200D02*
X44893400Y-105782200D01*
X36638400Y-104512200D02*
X37908400Y-105782200D01*
X37908400Y-105782200D02*
X41210400Y-105782200D01*
X35904900Y-98543200D02*
X34606400Y-98543200D01*
X34225400Y-104004200D02*
X34733400Y-104512200D01*
X34606400Y-98543200D02*
X34225400Y-98924200D01*
X34225400Y-98924200D02*
X34225400Y-104004200D01*
X34606400Y-104512200D02*
X36638400Y-104512200D01*
D29*
%TO.N,Board_1-Net-(JR1-Pad2)*%
X28510400Y-67047200D02*
X26224400Y-67047200D01*
X26224400Y-67047200D02*
X25330400Y-67941200D01*
%TO.N,Board_1-Net-(J5-Pad2)*%
X17842400Y-87875200D02*
X17842400Y-76953200D01*
X17842400Y-76953200D02*
X24314400Y-70481200D01*
X20890400Y-99305200D02*
X17842400Y-99305200D01*
X36765400Y-75683200D02*
X34098400Y-78350200D01*
X17842400Y-99305200D02*
X17842400Y-87875200D01*
X31939400Y-67047200D02*
X31939400Y-70481200D01*
X36765400Y-71873200D02*
X36765400Y-75683200D01*
X35368400Y-70476200D02*
X36765400Y-71873200D01*
X31939400Y-70476200D02*
X35368400Y-70476200D01*
X20890400Y-87875200D02*
X17842400Y-87875200D01*
X31939400Y-70481200D02*
X24573400Y-70481200D01*
%TO.N,Board_1-Net-(J5-Pad1)*%
X28510400Y-74667200D02*
X24700400Y-74667200D01*
X34733400Y-72381200D02*
X35368400Y-73016200D01*
X23049400Y-82795200D02*
X23049400Y-94098200D01*
X20890400Y-82795200D02*
X23049400Y-82795200D01*
X28510400Y-74667200D02*
X28510400Y-72863800D01*
X28993000Y-72381200D02*
X34733400Y-72381200D01*
X28510400Y-72863800D02*
X28993000Y-72381200D01*
X35368400Y-73016200D02*
X35368400Y-74667200D01*
X23049400Y-94098200D02*
X22922400Y-94225200D01*
X23049400Y-76318200D02*
X23049400Y-82795200D01*
X24700400Y-74667200D02*
X23049400Y-76318200D01*
X35368400Y-74667200D02*
X31685400Y-78350200D01*
X22922400Y-94225200D02*
X20890400Y-94225200D01*
D27*
%TO.N,Board_1-Net-(J4-Pad2)*%
X33844400Y-108957200D02*
X31558400Y-108957200D01*
X35904900Y-108322200D02*
X34479400Y-108322200D01*
X34479400Y-108322200D02*
X33844400Y-108957200D01*
%TO.N,Board_1-Net-(J4-Pad1)*%
X26478400Y-112259200D02*
X26478400Y-108957200D01*
X27621400Y-113402200D02*
X26478400Y-112259200D01*
X35904900Y-113402200D02*
X27621400Y-113402200D01*
D30*
%TO.N,Board_1-Net-(D4-Pad2)*%
X42836000Y-79925000D02*
X42836000Y-82922200D01*
X42759600Y-79848600D02*
X42836000Y-79925000D01*
X41605200Y-79848600D02*
X42759600Y-79848600D01*
D31*
%TO.N,Board_1-Net-(D3-Pad2)*%
X101865600Y-106696600D02*
X106945600Y-106696600D01*
D30*
%TO.N,Board_1-Net-(C5-Pad1)*%
X70064800Y-87189400D02*
X67321600Y-87189400D01*
X67220000Y-87087800D02*
X67220000Y-95469800D01*
X67220000Y-81652200D02*
X67220000Y-87087800D01*
X67169200Y-95520600D02*
X69861600Y-95520600D01*
X67321600Y-87189400D02*
X67220000Y-87087800D01*
X67220000Y-95469800D02*
X67169200Y-95520600D01*
D32*
%TO.N,Board_1-GND*%
X43394800Y-76623000D02*
X41630800Y-76623000D01*
D27*
%TO.N,Board_1-DCC_in2*%
X85254000Y-71289000D02*
X85254000Y-75302200D01*
D28*
X66559600Y-72863800D02*
X66559600Y-103242200D01*
D30*
X66508800Y-72813000D02*
X66559600Y-72863800D01*
D28*
X79513600Y-75403800D02*
X78192800Y-74083000D01*
X66458000Y-72762200D02*
X66559600Y-72863800D01*
D30*
X64476800Y-72660600D02*
X64629200Y-72813000D01*
X64629200Y-72813000D02*
X66508800Y-72813000D01*
D28*
X72554000Y-74083000D02*
X71284000Y-72813000D01*
D27*
X85254000Y-75302200D02*
X82007800Y-75302200D01*
X82002800Y-75353000D02*
X96734800Y-75353000D01*
X96734800Y-75353000D02*
X97090400Y-75708600D01*
D28*
X78192800Y-74083000D02*
X72554000Y-74083000D01*
X66559600Y-103242200D02*
X67220000Y-103902600D01*
D30*
X64476800Y-71441400D02*
X64476800Y-72660600D01*
%TO.N,Board_1-DCC_in1*%
X81545600Y-68342600D02*
X89470400Y-68342600D01*
X68540800Y-68241000D02*
X67778800Y-69003000D01*
X71284000Y-105934600D02*
X71284000Y-92980600D01*
X71334800Y-83571800D02*
X71334800Y-92980600D01*
D27*
X98309600Y-73168600D02*
X99579600Y-74438600D01*
D30*
X65391200Y-105934600D02*
X65645200Y-106188600D01*
X75297200Y-68393400D02*
X75144800Y-68241000D01*
X75144800Y-68241000D02*
X71792000Y-68241000D01*
D27*
X99579600Y-78197800D02*
X102170400Y-80788600D01*
D30*
X70064800Y-79518600D02*
X70064800Y-82301800D01*
X70064800Y-82301800D02*
X71334800Y-83571800D01*
X71030000Y-106188600D02*
X71284000Y-105934600D01*
X67778800Y-77232600D02*
X70064800Y-79518600D01*
X65645200Y-106188600D02*
X71030000Y-106188600D01*
X71334800Y-92980600D02*
X69861600Y-92980600D01*
X89470400Y-68342600D02*
X90384800Y-69257000D01*
D27*
X90491200Y-71446200D02*
X93894800Y-71446200D01*
D30*
X90384800Y-69257000D02*
X90334000Y-69307800D01*
X67778800Y-69003000D02*
X67778800Y-77232600D01*
X65391200Y-104613800D02*
X65391200Y-105934600D01*
D27*
X99579600Y-74438600D02*
X99579600Y-78197800D01*
X93894800Y-71446200D02*
X95617200Y-73168600D01*
X95617200Y-73168600D02*
X98309600Y-73168600D01*
D30*
X90334000Y-69307800D02*
X90334000Y-71289000D01*
X78954800Y-68393400D02*
X75297200Y-68393400D01*
%TO.N,Board_1-DCC_Sig*%
X55739200Y-82719000D02*
X57237800Y-84217600D01*
X53251600Y-83735000D02*
X54267600Y-82719000D01*
X58101400Y-85462200D02*
X60412800Y-85462200D01*
X60463600Y-90085000D02*
X60463600Y-85411400D01*
X60463600Y-85411400D02*
X60463600Y-79925000D01*
X60006400Y-92726600D02*
X60006400Y-90542200D01*
X60463600Y-79925000D02*
X61327200Y-79061400D01*
X60260400Y-92980600D02*
X60006400Y-92726600D01*
X57237800Y-84598600D02*
X57212400Y-84598600D01*
X57212400Y-84598600D02*
X57212400Y-84243000D01*
X62241600Y-92980600D02*
X60260400Y-92980600D01*
X58101400Y-85462200D02*
X57237800Y-84598600D01*
X54267600Y-82719000D02*
X55739200Y-82719000D01*
X60006400Y-90542200D02*
X60463600Y-90085000D01*
X57212400Y-84243000D02*
X57237800Y-84217600D01*
X60412800Y-85462200D02*
X60463600Y-85411400D01*
%TO.N,Board_1-D9-PWM*%
X90537200Y-111573400D02*
X60311200Y-111573400D01*
X60311200Y-101261000D02*
X59752400Y-100702200D01*
X90537200Y-108317800D02*
X90537200Y-111573400D01*
X89149200Y-106929800D02*
X90537200Y-108317800D01*
X59752400Y-100702200D02*
X58101400Y-100702200D01*
X60311200Y-111573400D02*
X60311200Y-101261000D01*
%TO.N,Board_1-D8*%
X88810000Y-111217800D02*
X89149200Y-110878600D01*
X89149200Y-110878600D02*
X89149200Y-109469800D01*
X60768400Y-98162200D02*
X60768400Y-111217800D01*
X60768400Y-111217800D02*
X88810000Y-111217800D01*
X58101400Y-98162200D02*
X60768400Y-98162200D01*
%TO.N,Board_1-D7*%
X56044000Y-92675800D02*
X56044000Y-94911000D01*
X56755200Y-95622200D02*
X58101400Y-95622200D01*
X54723200Y-91355000D02*
X56044000Y-92675800D01*
X56044000Y-94911000D02*
X56755200Y-95622200D01*
X53834200Y-91355000D02*
X54723200Y-91355000D01*
%TO.N,Board_1-D5 RE*%
X56958400Y-90542200D02*
X56501200Y-90085000D01*
D28*
X31558400Y-90643800D02*
X33387200Y-92472600D01*
X31558400Y-85970200D02*
X31558400Y-90643800D01*
D30*
X56501200Y-90085000D02*
X45985600Y-90085000D01*
D28*
X33412600Y-92447200D02*
X36501400Y-92447200D01*
D30*
X58101400Y-90542200D02*
X56958400Y-90542200D01*
X33387200Y-92472600D02*
X33412600Y-92447200D01*
X45985600Y-90085000D02*
X43623400Y-92447200D01*
X43623400Y-92447200D02*
X36501400Y-92447200D01*
%TO.N,Board_1-D4-Hdr*%
X46505200Y-76648600D02*
X48652800Y-76648600D01*
X48652800Y-76648600D02*
X51980000Y-79975800D01*
X51980000Y-79975800D02*
X51980000Y-85003400D01*
X53353200Y-86173400D02*
X55233100Y-86173400D01*
X51980000Y-85003400D02*
X53251600Y-86275000D01*
%TO.N,Board_1-D4*%
X55869421Y-87573621D02*
X44128179Y-87573621D01*
X56045900Y-88002200D02*
X58101400Y-88002200D01*
X44128179Y-87573621D02*
X42836000Y-88865800D01*
X42836000Y-88865800D02*
X42836000Y-90288200D01*
D28*
%TO.N,Board_1-D2 DE*%
X39635600Y-81703000D02*
X40186520Y-81152080D01*
X52284800Y-75251400D02*
X52284800Y-78705800D01*
X41372384Y-74641800D02*
X51675200Y-74641800D01*
X40186520Y-75827664D02*
X41372384Y-74641800D01*
X37400400Y-90694600D02*
X38213200Y-89881800D01*
X38213200Y-87087800D02*
X39635600Y-85665400D01*
X34098400Y-89475400D02*
X35317600Y-90694600D01*
X54570800Y-80991800D02*
X56171000Y-80991800D01*
X40186520Y-81152080D02*
X40186520Y-75827664D01*
X34098400Y-85970200D02*
X34098400Y-89475400D01*
X56171000Y-80991800D02*
X58101400Y-82922200D01*
X39635600Y-85665400D02*
X39635600Y-81703000D01*
X38213200Y-89881800D02*
X38213200Y-87087800D01*
X51675200Y-74641800D02*
X52284800Y-75251400D01*
X52284800Y-78705800D02*
X54570800Y-80991800D01*
X35317600Y-90694600D02*
X37400400Y-90694600D01*
%TO.N,Board_1-D1{slash}Tx*%
X36501400Y-89145200D02*
X36501400Y-86107200D01*
X52881300Y-73981400D02*
X41469192Y-73981400D01*
X36638400Y-83989000D02*
X36638400Y-85970200D01*
X41469192Y-73981400D02*
X39788000Y-75662592D01*
X39788000Y-75662592D02*
X39788000Y-80839400D01*
X39788000Y-80839400D02*
X36638400Y-83989000D01*
X52996000Y-74096100D02*
X52881300Y-73981400D01*
D30*
%TO.N,Board_1-D13*%
X87336800Y-110760600D02*
X87590800Y-110506600D01*
X87590800Y-110506600D02*
X87590800Y-104389800D01*
X73341400Y-108322200D02*
X75779800Y-110760600D01*
X75779800Y-110760600D02*
X87336800Y-110760600D01*
X87590800Y-104389800D02*
X89962000Y-104389800D01*
D28*
%TO.N,Board_1-D12*%
X59752400Y-107941200D02*
X59371400Y-108322200D01*
X59752400Y-102480200D02*
X59752400Y-107941200D01*
X53938900Y-95622200D02*
X56196400Y-97879700D01*
X56196400Y-101210200D02*
X57085400Y-102099200D01*
X59371400Y-108322200D02*
X58101400Y-108322200D01*
X57085400Y-102099200D02*
X59371400Y-102099200D01*
X56196400Y-97879700D02*
X56196400Y-101083200D01*
X59371400Y-102099200D02*
X59752400Y-102480200D01*
%TO.N,Board_1-D11*%
X55180400Y-107306200D02*
X56704400Y-105782200D01*
X44893400Y-113402200D02*
X50989400Y-107306200D01*
X56704400Y-105782200D02*
X58101400Y-105782200D01*
X50989400Y-107306200D02*
X55180400Y-107306200D01*
%TO.N,Board_1-D10*%
X57085400Y-103242200D02*
X58101400Y-103242200D01*
X43203889Y-100702200D02*
X47140889Y-104639200D01*
X35904900Y-100702200D02*
X43203889Y-100702200D01*
X55688400Y-104639200D02*
X57085400Y-103242200D01*
X47140889Y-104639200D02*
X55688400Y-104639200D01*
%TO.N,Board_1-D0{slash}Rx*%
X29018400Y-84598600D02*
X29018400Y-85970200D01*
X54291400Y-75302200D02*
X54291400Y-78604200D01*
X35852722Y-84039800D02*
X29577200Y-84039800D01*
X29577200Y-84039800D02*
X29018400Y-84598600D01*
X39342320Y-80550202D02*
X35852722Y-84039800D01*
X58101400Y-75302200D02*
X54291400Y-75302200D01*
X39342320Y-75544680D02*
X39342320Y-80550202D01*
X41464400Y-73422600D02*
X39342320Y-75544680D01*
X54291400Y-75302200D02*
X54291400Y-73448000D01*
X54291400Y-73448000D02*
X54266000Y-73422600D01*
X54266000Y-73422600D02*
X41464400Y-73422600D01*
D30*
%TO.N,Board_1-A7*%
X76008400Y-82922200D02*
X73341400Y-82922200D01*
X77583200Y-84497000D02*
X76008400Y-82922200D01*
X77583200Y-86478200D02*
X77583200Y-84497000D01*
%TO.N,Board_1-A6*%
X76313200Y-89018200D02*
X77583200Y-89018200D01*
X75297200Y-88002200D02*
X76313200Y-89018200D01*
X73341400Y-85462200D02*
X74738400Y-85462200D01*
X75297200Y-86021000D02*
X75297200Y-88002200D01*
X74738400Y-85462200D02*
X75297200Y-86021000D01*
%TO.N,Board_1-A5 {slash} I2C SCL*%
X73341400Y-88002200D02*
X76897400Y-91558200D01*
%TO.N,Board_1-A4 {slash} I2C SDA*%
X73341400Y-90542200D02*
X74687600Y-90542200D01*
X75805200Y-91659800D02*
X75805200Y-93641000D01*
X75805200Y-93641000D02*
X76262400Y-94098200D01*
X76262400Y-94098200D02*
X77583200Y-94098200D01*
X74687600Y-90542200D02*
X75805200Y-91659800D01*
%TO.N,Board_1-A3*%
X77583200Y-97324000D02*
X77583200Y-101829800D01*
X73341400Y-93082200D02*
X77583200Y-97324000D01*
%TO.N,Board_1-A2*%
X73341400Y-95622200D02*
X76110000Y-98390800D01*
X76110000Y-98390800D02*
X76110000Y-103191400D01*
X76404800Y-103191400D02*
X77583200Y-104369800D01*
X76110000Y-103191400D02*
X76404800Y-103191400D01*
%TO.N,Board_1-A1*%
X75761480Y-105088080D02*
X77583200Y-106909800D01*
X75761480Y-100582280D02*
X75761480Y-105088080D01*
X73341400Y-98162200D02*
X75761480Y-100582280D01*
%TO.N,Board_1-A0*%
X75412960Y-102773760D02*
X75412960Y-107279560D01*
X75412960Y-107279560D02*
X77583200Y-109449800D01*
X73341400Y-100702200D02*
X75412960Y-102773760D01*
D27*
%TO.N,Board_1-+5V*%
X51827600Y-72559000D02*
X51827600Y-67377400D01*
X52437200Y-66767800D02*
X54266000Y-66767800D01*
D30*
X91279200Y-89841800D02*
X90598000Y-89160600D01*
D29*
X62902000Y-80077400D02*
X62902000Y-74845000D01*
D27*
X73163600Y-80382200D02*
X72706400Y-80382200D01*
X108317200Y-99127400D02*
X108266400Y-99076600D01*
X28891400Y-78477200D02*
X28891400Y-80509200D01*
X50710800Y-94046600D02*
X50710800Y-91355000D01*
X35904900Y-95622200D02*
X49135200Y-95622200D01*
X91807200Y-109449800D02*
X91807200Y-99127400D01*
D29*
X61372089Y-86015089D02*
X61372089Y-81607311D01*
D32*
X110247600Y-100640600D02*
X110247600Y-99635400D01*
D29*
X62495600Y-87138600D02*
X64934000Y-87138600D01*
D27*
X29007600Y-95662200D02*
X32066400Y-95662200D01*
X91807200Y-99127400D02*
X91705600Y-99025800D01*
X108266400Y-99076600D02*
X81088400Y-99076600D01*
D30*
X54291400Y-66793200D02*
X54266000Y-66767800D01*
D27*
X69912400Y-77588200D02*
X69912400Y-66767800D01*
D31*
X90598000Y-89160600D02*
X89114800Y-89160600D01*
D27*
X69658400Y-66767800D02*
X69709200Y-66818600D01*
D28*
X50710800Y-80230600D02*
X50328800Y-79848600D01*
D31*
X91045200Y-89577000D02*
X90628800Y-89160600D01*
D29*
X62241600Y-74184600D02*
X61327200Y-74184600D01*
D32*
X30821800Y-74667200D02*
X29018400Y-76470600D01*
D27*
X28891400Y-80509200D02*
X37425800Y-80509200D01*
D32*
X54291400Y-70984200D02*
X54291400Y-66793200D01*
D28*
X50710800Y-83735000D02*
X50710800Y-80230600D01*
D27*
X25930400Y-77842200D02*
X28510400Y-77842200D01*
X28510400Y-77842200D02*
X29018400Y-78350200D01*
X51827600Y-67377400D02*
X52437200Y-66767800D01*
D29*
X64934000Y-87138600D02*
X65035600Y-87240200D01*
D32*
X29018400Y-76470600D02*
X29018400Y-77588200D01*
D27*
X109434800Y-92879000D02*
X106488400Y-92879000D01*
D32*
X61327200Y-71441400D02*
X61327200Y-66717000D01*
D31*
X90943600Y-98568600D02*
X91045200Y-98467000D01*
D29*
X63613200Y-98060600D02*
X62241600Y-98060600D01*
D27*
X26224400Y-89145200D02*
X25843400Y-88764200D01*
D29*
X61372089Y-81607311D02*
X62902000Y-80077400D01*
D27*
X38365600Y-79569400D02*
X38365600Y-75149800D01*
X37425800Y-80509200D02*
X38365600Y-79569400D01*
D31*
X91045200Y-98467000D02*
X91045200Y-89577000D01*
D27*
X108317200Y-99127400D02*
X108012400Y-99127400D01*
X28881400Y-89145200D02*
X26224400Y-89145200D01*
D29*
X61327200Y-74184600D02*
X61327200Y-71441400D01*
X65035600Y-87240200D02*
X65035600Y-96638200D01*
D32*
X110247600Y-99635400D02*
X109688800Y-99076600D01*
D27*
X97649200Y-99076600D02*
X109536400Y-99076600D01*
D29*
X62902000Y-74845000D02*
X62241600Y-74184600D01*
D31*
X90628800Y-89160600D02*
X90598000Y-89160600D01*
D27*
X32106400Y-95622200D02*
X35904900Y-95622200D01*
D29*
X62495600Y-87138600D02*
X61372089Y-86015089D01*
D27*
X28881400Y-92447200D02*
X28881400Y-89145200D01*
X40956400Y-72559000D02*
X51827600Y-72559000D01*
D32*
X31939400Y-74667200D02*
X30821800Y-74667200D01*
D27*
X38365600Y-75149800D02*
X40956400Y-72559000D01*
X49135200Y-95622200D02*
X50710800Y-94046600D01*
D28*
X50328800Y-79848600D02*
X46505200Y-79848600D01*
D29*
X65035600Y-96638200D02*
X63613200Y-98060600D01*
D27*
X72706400Y-80382200D02*
X69912400Y-77588200D01*
X109536400Y-81562190D02*
X108916100Y-80941890D01*
X69912400Y-66767800D02*
X69861600Y-66717000D01*
X77329200Y-80382200D02*
X80174000Y-83227000D01*
X80174000Y-83227000D02*
X80174000Y-109287400D01*
X109536400Y-99076600D02*
X109536400Y-81562190D01*
X28881400Y-95536000D02*
X29007600Y-95662200D01*
X28881400Y-92447200D02*
X28881400Y-95536000D01*
X73341400Y-80382200D02*
X77329200Y-80382200D01*
X54266000Y-66767800D02*
X69658400Y-66767800D01*
X25843400Y-88764200D02*
X25843400Y-77929200D01*
%TO.N,Board_0-Vin*%
X108520400Y-24324400D02*
X106361400Y-22165400D01*
X103542000Y-22227000D02*
X102464400Y-21149400D01*
X80224800Y-16729800D02*
X80224800Y-19219000D01*
X103542000Y-24502200D02*
X103542000Y-22227000D01*
X80224800Y-19219000D02*
X79259600Y-20184200D01*
X79259600Y-20184200D02*
X77126000Y-20184200D01*
X102337400Y-21149400D02*
X96176000Y-21149400D01*
X108520400Y-25975400D02*
X108520400Y-24324400D01*
X106361400Y-22165400D02*
X103353400Y-22165400D01*
X96176000Y-21149400D02*
X95109200Y-20082600D01*
X102170400Y-25873800D02*
X103542000Y-24502200D01*
X95109200Y-16780600D02*
X80275600Y-16780600D01*
X95109200Y-20082600D02*
X95109200Y-16780600D01*
X103353400Y-22165400D02*
X102337400Y-21149400D01*
X102464400Y-21149400D02*
X98512800Y-21149400D01*
%TO.N,Board_0-VIN2*%
X76872000Y-22927400D02*
X73341400Y-22927400D01*
D28*
%TO.N,Board_0-Net-(R5-Pad2)*%
X41210400Y-55947400D02*
X44893400Y-55947400D01*
X36638400Y-54677400D02*
X37908400Y-55947400D01*
X37908400Y-55947400D02*
X41210400Y-55947400D01*
X35904900Y-48708400D02*
X34606400Y-48708400D01*
X34225400Y-54169400D02*
X34733400Y-54677400D01*
X34606400Y-48708400D02*
X34225400Y-49089400D01*
X34225400Y-49089400D02*
X34225400Y-54169400D01*
X34606400Y-54677400D02*
X36638400Y-54677400D01*
D29*
%TO.N,Board_0-Net-(JR1-Pad2)*%
X28510400Y-17212400D02*
X26224400Y-17212400D01*
X26224400Y-17212400D02*
X25330400Y-18106400D01*
%TO.N,Board_0-Net-(J5-Pad2)*%
X17842400Y-38040400D02*
X17842400Y-27118400D01*
X17842400Y-27118400D02*
X24314400Y-20646400D01*
X20890400Y-49470400D02*
X17842400Y-49470400D01*
X36765400Y-25848400D02*
X34098400Y-28515400D01*
X17842400Y-49470400D02*
X17842400Y-38040400D01*
X31939400Y-17212400D02*
X31939400Y-20646400D01*
X36765400Y-22038400D02*
X36765400Y-25848400D01*
X35368400Y-20641400D02*
X36765400Y-22038400D01*
X31939400Y-20641400D02*
X35368400Y-20641400D01*
X20890400Y-38040400D02*
X17842400Y-38040400D01*
X31939400Y-20646400D02*
X24573400Y-20646400D01*
%TO.N,Board_0-Net-(J5-Pad1)*%
X28510400Y-24832400D02*
X24700400Y-24832400D01*
X34733400Y-22546400D02*
X35368400Y-23181400D01*
X23049400Y-32960400D02*
X23049400Y-44263400D01*
X20890400Y-32960400D02*
X23049400Y-32960400D01*
X28510400Y-24832400D02*
X28510400Y-23029000D01*
X28993000Y-22546400D02*
X34733400Y-22546400D01*
X28510400Y-23029000D02*
X28993000Y-22546400D01*
X35368400Y-23181400D02*
X35368400Y-24832400D01*
X23049400Y-44263400D02*
X22922400Y-44390400D01*
X23049400Y-26483400D02*
X23049400Y-32960400D01*
X24700400Y-24832400D02*
X23049400Y-26483400D01*
X35368400Y-24832400D02*
X31685400Y-28515400D01*
X22922400Y-44390400D02*
X20890400Y-44390400D01*
D27*
%TO.N,Board_0-Net-(J4-Pad2)*%
X33844400Y-59122400D02*
X31558400Y-59122400D01*
X35904900Y-58487400D02*
X34479400Y-58487400D01*
X34479400Y-58487400D02*
X33844400Y-59122400D01*
%TO.N,Board_0-Net-(J4-Pad1)*%
X26478400Y-62424400D02*
X26478400Y-59122400D01*
X27621400Y-63567400D02*
X26478400Y-62424400D01*
X35904900Y-63567400D02*
X27621400Y-63567400D01*
D30*
%TO.N,Board_0-Net-(D4-Pad2)*%
X42836000Y-30090200D02*
X42836000Y-33087400D01*
X42759600Y-30013800D02*
X42836000Y-30090200D01*
X41605200Y-30013800D02*
X42759600Y-30013800D01*
D31*
%TO.N,Board_0-Net-(D3-Pad2)*%
X101865600Y-56861800D02*
X106945600Y-56861800D01*
D30*
%TO.N,Board_0-Net-(C5-Pad1)*%
X70064800Y-37354600D02*
X67321600Y-37354600D01*
X67220000Y-37253000D02*
X67220000Y-45635000D01*
X67220000Y-31817400D02*
X67220000Y-37253000D01*
X67169200Y-45685800D02*
X69861600Y-45685800D01*
X67321600Y-37354600D02*
X67220000Y-37253000D01*
X67220000Y-45635000D02*
X67169200Y-45685800D01*
D32*
%TO.N,Board_0-GND*%
X43394800Y-26788200D02*
X41630800Y-26788200D01*
D27*
%TO.N,Board_0-DCC_in2*%
X85254000Y-21454200D02*
X85254000Y-25467400D01*
D28*
X66559600Y-23029000D02*
X66559600Y-53407400D01*
D30*
X66508800Y-22978200D02*
X66559600Y-23029000D01*
D28*
X79513600Y-25569000D02*
X78192800Y-24248200D01*
X66458000Y-22927400D02*
X66559600Y-23029000D01*
D30*
X64476800Y-22825800D02*
X64629200Y-22978200D01*
X64629200Y-22978200D02*
X66508800Y-22978200D01*
D28*
X72554000Y-24248200D02*
X71284000Y-22978200D01*
D27*
X85254000Y-25467400D02*
X82007800Y-25467400D01*
X82002800Y-25518200D02*
X96734800Y-25518200D01*
X96734800Y-25518200D02*
X97090400Y-25873800D01*
D28*
X78192800Y-24248200D02*
X72554000Y-24248200D01*
X66559600Y-53407400D02*
X67220000Y-54067800D01*
D30*
X64476800Y-21606600D02*
X64476800Y-22825800D01*
%TO.N,Board_0-DCC_in1*%
X81545600Y-18507800D02*
X89470400Y-18507800D01*
X68540800Y-18406200D02*
X67778800Y-19168200D01*
X71284000Y-56099800D02*
X71284000Y-43145800D01*
X71334800Y-33737000D02*
X71334800Y-43145800D01*
D27*
X98309600Y-23333800D02*
X99579600Y-24603800D01*
D30*
X65391200Y-56099800D02*
X65645200Y-56353800D01*
X75297200Y-18558600D02*
X75144800Y-18406200D01*
X75144800Y-18406200D02*
X71792000Y-18406200D01*
D27*
X99579600Y-28363000D02*
X102170400Y-30953800D01*
D30*
X70064800Y-29683800D02*
X70064800Y-32467000D01*
X70064800Y-32467000D02*
X71334800Y-33737000D01*
X71030000Y-56353800D02*
X71284000Y-56099800D01*
X67778800Y-27397800D02*
X70064800Y-29683800D01*
X65645200Y-56353800D02*
X71030000Y-56353800D01*
X71334800Y-43145800D02*
X69861600Y-43145800D01*
X89470400Y-18507800D02*
X90384800Y-19422200D01*
D27*
X90491200Y-21611400D02*
X93894800Y-21611400D01*
D30*
X90384800Y-19422200D02*
X90334000Y-19473000D01*
X67778800Y-19168200D02*
X67778800Y-27397800D01*
X65391200Y-54779000D02*
X65391200Y-56099800D01*
D27*
X99579600Y-24603800D02*
X99579600Y-28363000D01*
X93894800Y-21611400D02*
X95617200Y-23333800D01*
X95617200Y-23333800D02*
X98309600Y-23333800D01*
D30*
X90334000Y-19473000D02*
X90334000Y-21454200D01*
X78954800Y-18558600D02*
X75297200Y-18558600D01*
%TO.N,Board_0-DCC_Sig*%
X55739200Y-32884200D02*
X57237800Y-34382800D01*
X53251600Y-33900200D02*
X54267600Y-32884200D01*
X58101400Y-35627400D02*
X60412800Y-35627400D01*
X60463600Y-40250200D02*
X60463600Y-35576600D01*
X60463600Y-35576600D02*
X60463600Y-30090200D01*
X60006400Y-42891800D02*
X60006400Y-40707400D01*
X60463600Y-30090200D02*
X61327200Y-29226600D01*
X60260400Y-43145800D02*
X60006400Y-42891800D01*
X57237800Y-34763800D02*
X57212400Y-34763800D01*
X57212400Y-34763800D02*
X57212400Y-34408200D01*
X62241600Y-43145800D02*
X60260400Y-43145800D01*
X58101400Y-35627400D02*
X57237800Y-34763800D01*
X54267600Y-32884200D02*
X55739200Y-32884200D01*
X60006400Y-40707400D02*
X60463600Y-40250200D01*
X57212400Y-34408200D02*
X57237800Y-34382800D01*
X60412800Y-35627400D02*
X60463600Y-35576600D01*
%TO.N,Board_0-D9-PWM*%
X90537200Y-61738600D02*
X60311200Y-61738600D01*
X60311200Y-51426200D02*
X59752400Y-50867400D01*
X90537200Y-58483000D02*
X90537200Y-61738600D01*
X89149200Y-57095000D02*
X90537200Y-58483000D01*
X59752400Y-50867400D02*
X58101400Y-50867400D01*
X60311200Y-61738600D02*
X60311200Y-51426200D01*
%TO.N,Board_0-D8*%
X88810000Y-61383000D02*
X89149200Y-61043800D01*
X89149200Y-61043800D02*
X89149200Y-59635000D01*
X60768400Y-48327400D02*
X60768400Y-61383000D01*
X60768400Y-61383000D02*
X88810000Y-61383000D01*
X58101400Y-48327400D02*
X60768400Y-48327400D01*
%TO.N,Board_0-D7*%
X56044000Y-42841000D02*
X56044000Y-45076200D01*
X56755200Y-45787400D02*
X58101400Y-45787400D01*
X54723200Y-41520200D02*
X56044000Y-42841000D01*
X56044000Y-45076200D02*
X56755200Y-45787400D01*
X53834200Y-41520200D02*
X54723200Y-41520200D01*
%TO.N,Board_0-D5 RE*%
X56958400Y-40707400D02*
X56501200Y-40250200D01*
D28*
X31558400Y-40809000D02*
X33387200Y-42637800D01*
X31558400Y-36135400D02*
X31558400Y-40809000D01*
D30*
X56501200Y-40250200D02*
X45985600Y-40250200D01*
D28*
X33412600Y-42612400D02*
X36501400Y-42612400D01*
D30*
X58101400Y-40707400D02*
X56958400Y-40707400D01*
X33387200Y-42637800D02*
X33412600Y-42612400D01*
X45985600Y-40250200D02*
X43623400Y-42612400D01*
X43623400Y-42612400D02*
X36501400Y-42612400D01*
%TO.N,Board_0-D4-Hdr*%
X46505200Y-26813800D02*
X48652800Y-26813800D01*
X48652800Y-26813800D02*
X51980000Y-30141000D01*
X51980000Y-30141000D02*
X51980000Y-35168600D01*
X53353200Y-36338600D02*
X55233100Y-36338600D01*
X51980000Y-35168600D02*
X53251600Y-36440200D01*
%TO.N,Board_0-D4*%
X55869421Y-37738821D02*
X44128179Y-37738821D01*
X56045900Y-38167400D02*
X58101400Y-38167400D01*
X44128179Y-37738821D02*
X42836000Y-39031000D01*
X42836000Y-39031000D02*
X42836000Y-40453400D01*
D28*
%TO.N,Board_0-D2 DE*%
X39635600Y-31868200D02*
X40186520Y-31317280D01*
X52284800Y-25416600D02*
X52284800Y-28871000D01*
X41372384Y-24807000D02*
X51675200Y-24807000D01*
X40186520Y-25992864D02*
X41372384Y-24807000D01*
X37400400Y-40859800D02*
X38213200Y-40047000D01*
X38213200Y-37253000D02*
X39635600Y-35830600D01*
X34098400Y-39640600D02*
X35317600Y-40859800D01*
X54570800Y-31157000D02*
X56171000Y-31157000D01*
X40186520Y-31317280D02*
X40186520Y-25992864D01*
X34098400Y-36135400D02*
X34098400Y-39640600D01*
X56171000Y-31157000D02*
X58101400Y-33087400D01*
X39635600Y-35830600D02*
X39635600Y-31868200D01*
X38213200Y-40047000D02*
X38213200Y-37253000D01*
X51675200Y-24807000D02*
X52284800Y-25416600D01*
X52284800Y-28871000D02*
X54570800Y-31157000D01*
X35317600Y-40859800D02*
X37400400Y-40859800D01*
%TO.N,Board_0-D1{slash}Tx*%
X36501400Y-39310400D02*
X36501400Y-36272400D01*
X52881300Y-24146600D02*
X41469192Y-24146600D01*
X36638400Y-34154200D02*
X36638400Y-36135400D01*
X41469192Y-24146600D02*
X39788000Y-25827792D01*
X39788000Y-25827792D02*
X39788000Y-31004600D01*
X39788000Y-31004600D02*
X36638400Y-34154200D01*
X52996000Y-24261300D02*
X52881300Y-24146600D01*
D30*
%TO.N,Board_0-D13*%
X87336800Y-60925800D02*
X87590800Y-60671800D01*
X87590800Y-60671800D02*
X87590800Y-54555000D01*
X73341400Y-58487400D02*
X75779800Y-60925800D01*
X75779800Y-60925800D02*
X87336800Y-60925800D01*
X87590800Y-54555000D02*
X89962000Y-54555000D01*
D28*
%TO.N,Board_0-D12*%
X59752400Y-58106400D02*
X59371400Y-58487400D01*
X59752400Y-52645400D02*
X59752400Y-58106400D01*
X53938900Y-45787400D02*
X56196400Y-48044900D01*
X56196400Y-51375400D02*
X57085400Y-52264400D01*
X59371400Y-58487400D02*
X58101400Y-58487400D01*
X57085400Y-52264400D02*
X59371400Y-52264400D01*
X56196400Y-48044900D02*
X56196400Y-51248400D01*
X59371400Y-52264400D02*
X59752400Y-52645400D01*
%TO.N,Board_0-D11*%
X55180400Y-57471400D02*
X56704400Y-55947400D01*
X44893400Y-63567400D02*
X50989400Y-57471400D01*
X56704400Y-55947400D02*
X58101400Y-55947400D01*
X50989400Y-57471400D02*
X55180400Y-57471400D01*
%TO.N,Board_0-D10*%
X57085400Y-53407400D02*
X58101400Y-53407400D01*
X43203889Y-50867400D02*
X47140889Y-54804400D01*
X35904900Y-50867400D02*
X43203889Y-50867400D01*
X55688400Y-54804400D02*
X57085400Y-53407400D01*
X47140889Y-54804400D02*
X55688400Y-54804400D01*
%TO.N,Board_0-D0{slash}Rx*%
X29018400Y-34763800D02*
X29018400Y-36135400D01*
X54291400Y-25467400D02*
X54291400Y-28769400D01*
X35852722Y-34205000D02*
X29577200Y-34205000D01*
X29577200Y-34205000D02*
X29018400Y-34763800D01*
X39342320Y-30715402D02*
X35852722Y-34205000D01*
X58101400Y-25467400D02*
X54291400Y-25467400D01*
X39342320Y-25709880D02*
X39342320Y-30715402D01*
X41464400Y-23587800D02*
X39342320Y-25709880D01*
X54291400Y-25467400D02*
X54291400Y-23613200D01*
X54291400Y-23613200D02*
X54266000Y-23587800D01*
X54266000Y-23587800D02*
X41464400Y-23587800D01*
D30*
%TO.N,Board_0-A7*%
X76008400Y-33087400D02*
X73341400Y-33087400D01*
X77583200Y-34662200D02*
X76008400Y-33087400D01*
X77583200Y-36643400D02*
X77583200Y-34662200D01*
%TO.N,Board_0-A6*%
X76313200Y-39183400D02*
X77583200Y-39183400D01*
X75297200Y-38167400D02*
X76313200Y-39183400D01*
X73341400Y-35627400D02*
X74738400Y-35627400D01*
X75297200Y-36186200D02*
X75297200Y-38167400D01*
X74738400Y-35627400D02*
X75297200Y-36186200D01*
%TO.N,Board_0-A5 {slash} I2C SCL*%
X73341400Y-38167400D02*
X76897400Y-41723400D01*
%TO.N,Board_0-A4 {slash} I2C SDA*%
X73341400Y-40707400D02*
X74687600Y-40707400D01*
X75805200Y-41825000D02*
X75805200Y-43806200D01*
X75805200Y-43806200D02*
X76262400Y-44263400D01*
X76262400Y-44263400D02*
X77583200Y-44263400D01*
X74687600Y-40707400D02*
X75805200Y-41825000D01*
%TO.N,Board_0-A3*%
X77583200Y-47489200D02*
X77583200Y-51995000D01*
X73341400Y-43247400D02*
X77583200Y-47489200D01*
%TO.N,Board_0-A2*%
X73341400Y-45787400D02*
X76110000Y-48556000D01*
X76110000Y-48556000D02*
X76110000Y-53356600D01*
X76404800Y-53356600D02*
X77583200Y-54535000D01*
X76110000Y-53356600D02*
X76404800Y-53356600D01*
%TO.N,Board_0-A1*%
X75761480Y-55253280D02*
X77583200Y-57075000D01*
X75761480Y-50747480D02*
X75761480Y-55253280D01*
X73341400Y-48327400D02*
X75761480Y-50747480D01*
%TO.N,Board_0-A0*%
X75412960Y-52938960D02*
X75412960Y-57444760D01*
X75412960Y-57444760D02*
X77583200Y-59615000D01*
X73341400Y-50867400D02*
X75412960Y-52938960D01*
D27*
%TO.N,Board_0-+5V*%
X51827600Y-22724200D02*
X51827600Y-17542600D01*
X52437200Y-16933000D02*
X54266000Y-16933000D01*
D30*
X91279200Y-40007000D02*
X90598000Y-39325800D01*
D29*
X62902000Y-30242600D02*
X62902000Y-25010200D01*
D27*
X73163600Y-30547400D02*
X72706400Y-30547400D01*
X108317200Y-49292600D02*
X108266400Y-49241800D01*
X28891400Y-28642400D02*
X28891400Y-30674400D01*
X50710800Y-44211800D02*
X50710800Y-41520200D01*
X35904900Y-45787400D02*
X49135200Y-45787400D01*
X91807200Y-59615000D02*
X91807200Y-49292600D01*
D29*
X61372089Y-36180289D02*
X61372089Y-31772511D01*
D32*
X110247600Y-50805800D02*
X110247600Y-49800600D01*
D29*
X62495600Y-37303800D02*
X64934000Y-37303800D01*
D27*
X29007600Y-45827400D02*
X32066400Y-45827400D01*
X91807200Y-49292600D02*
X91705600Y-49191000D01*
X108266400Y-49241800D02*
X81088400Y-49241800D01*
D30*
X54291400Y-16958400D02*
X54266000Y-16933000D01*
D27*
X69912400Y-27753400D02*
X69912400Y-16933000D01*
D31*
X90598000Y-39325800D02*
X89114800Y-39325800D01*
D27*
X69658400Y-16933000D02*
X69709200Y-16983800D01*
D28*
X50710800Y-30395800D02*
X50328800Y-30013800D01*
D31*
X91045200Y-39742200D02*
X90628800Y-39325800D01*
D29*
X62241600Y-24349800D02*
X61327200Y-24349800D01*
D32*
X30821800Y-24832400D02*
X29018400Y-26635800D01*
D27*
X28891400Y-30674400D02*
X37425800Y-30674400D01*
D32*
X54291400Y-21149400D02*
X54291400Y-16958400D01*
D28*
X50710800Y-33900200D02*
X50710800Y-30395800D01*
D27*
X25930400Y-28007400D02*
X28510400Y-28007400D01*
X28510400Y-28007400D02*
X29018400Y-28515400D01*
X51827600Y-17542600D02*
X52437200Y-16933000D01*
D29*
X64934000Y-37303800D02*
X65035600Y-37405400D01*
D32*
X29018400Y-26635800D02*
X29018400Y-27753400D01*
D27*
X109434800Y-43044200D02*
X106488400Y-43044200D01*
D32*
X61327200Y-21606600D02*
X61327200Y-16882200D01*
D31*
X90943600Y-48733800D02*
X91045200Y-48632200D01*
D29*
X63613200Y-48225800D02*
X62241600Y-48225800D01*
D27*
X26224400Y-39310400D02*
X25843400Y-38929400D01*
D29*
X61372089Y-31772511D02*
X62902000Y-30242600D01*
D27*
X38365600Y-29734600D02*
X38365600Y-25315000D01*
X37425800Y-30674400D02*
X38365600Y-29734600D01*
D31*
X91045200Y-48632200D02*
X91045200Y-39742200D01*
D27*
X108317200Y-49292600D02*
X108012400Y-49292600D01*
X28881400Y-39310400D02*
X26224400Y-39310400D01*
D29*
X61327200Y-24349800D02*
X61327200Y-21606600D01*
X65035600Y-37405400D02*
X65035600Y-46803400D01*
D32*
X110247600Y-49800600D02*
X109688800Y-49241800D01*
D27*
X97649200Y-49241800D02*
X109536400Y-49241800D01*
D29*
X62902000Y-25010200D02*
X62241600Y-24349800D01*
D31*
X90628800Y-39325800D02*
X90598000Y-39325800D01*
D27*
X32106400Y-45787400D02*
X35904900Y-45787400D01*
D29*
X62495600Y-37303800D02*
X61372089Y-36180289D01*
D27*
X28881400Y-42612400D02*
X28881400Y-39310400D01*
X40956400Y-22724200D02*
X51827600Y-22724200D01*
D32*
X31939400Y-24832400D02*
X30821800Y-24832400D01*
D27*
X38365600Y-25315000D02*
X40956400Y-22724200D01*
X49135200Y-45787400D02*
X50710800Y-44211800D01*
D28*
X50328800Y-30013800D02*
X46505200Y-30013800D01*
D29*
X65035600Y-46803400D02*
X63613200Y-48225800D01*
D27*
X72706400Y-30547400D02*
X69912400Y-27753400D01*
X109536400Y-31727390D02*
X108916100Y-31107090D01*
X69912400Y-16933000D02*
X69861600Y-16882200D01*
X77329200Y-30547400D02*
X80174000Y-33392200D01*
X80174000Y-33392200D02*
X80174000Y-59452600D01*
X109536400Y-49241800D02*
X109536400Y-31727390D01*
X28881400Y-45701200D02*
X29007600Y-45827400D01*
X28881400Y-42612400D02*
X28881400Y-45701200D01*
X73341400Y-30547400D02*
X77329200Y-30547400D01*
X54266000Y-16933000D02*
X69658400Y-16933000D01*
X25843400Y-38929400D02*
X25843400Y-28094400D01*
%TD*%
M02*
