%TF.GenerationSoftware,KiCad,Pcbnew,(6.0.11)*%
%TF.CreationDate,2023-10-15T10:12:36-04:00*%
%TF.ProjectId,MaxDuino_R1.4_Panelized,4d617844-7569-46e6-9f5f-52312e345f50,1.4*%
%TF.SameCoordinates,Original*%
%TF.FileFunction,Legend,Bot*%
%TF.FilePolarity,Positive*%
%FSLAX46Y46*%
G04 Gerber Fmt 4.6, Leading zero omitted, Abs format (unit mm)*
G04 Created by KiCad (PCBNEW (6.0.11)) date 2023-10-15 10:12:36*
%MOMM*%
%LPD*%
G01*
G04 APERTURE LIST*
%ADD10C,0.150000*%
%ADD11C,0.200000*%
G04 APERTURE END LIST*
D10*
X84185180Y-67474180D02*
X84185180Y-66474180D01*
X83947085Y-66474180D01*
X83804228Y-66521800D01*
X83708990Y-66617038D01*
X83661371Y-66712276D01*
X83613752Y-66902752D01*
X83613752Y-67045609D01*
X83661371Y-67236085D01*
X83708990Y-67331323D01*
X83804228Y-67426561D01*
X83947085Y-67474180D01*
X84185180Y-67474180D01*
X82613752Y-67378942D02*
X82661371Y-67426561D01*
X82804228Y-67474180D01*
X82899466Y-67474180D01*
X83042323Y-67426561D01*
X83137561Y-67331323D01*
X83185180Y-67236085D01*
X83232800Y-67045609D01*
X83232800Y-66902752D01*
X83185180Y-66712276D01*
X83137561Y-66617038D01*
X83042323Y-66521800D01*
X82899466Y-66474180D01*
X82804228Y-66474180D01*
X82661371Y-66521800D01*
X82613752Y-66569419D01*
X81613752Y-67378942D02*
X81661371Y-67426561D01*
X81804228Y-67474180D01*
X81899466Y-67474180D01*
X82042323Y-67426561D01*
X82137561Y-67331323D01*
X82185180Y-67236085D01*
X82232800Y-67045609D01*
X82232800Y-66902752D01*
X82185180Y-66712276D01*
X82137561Y-66617038D01*
X82042323Y-66521800D01*
X81899466Y-66474180D01*
X81804228Y-66474180D01*
X81661371Y-66521800D01*
X81613752Y-66569419D01*
X80423276Y-67474180D02*
X80423276Y-66474180D01*
X79994704Y-67426561D02*
X79899466Y-67474180D01*
X79708990Y-67474180D01*
X79613752Y-67426561D01*
X79566133Y-67331323D01*
X79566133Y-67283704D01*
X79613752Y-67188466D01*
X79708990Y-67140847D01*
X79851847Y-67140847D01*
X79947085Y-67093228D01*
X79994704Y-66997990D01*
X79994704Y-66950371D01*
X79947085Y-66855133D01*
X79851847Y-66807514D01*
X79708990Y-66807514D01*
X79613752Y-66855133D01*
X78994704Y-67474180D02*
X79089942Y-67426561D01*
X79137561Y-67378942D01*
X79185180Y-67283704D01*
X79185180Y-66997990D01*
X79137561Y-66902752D01*
X79089942Y-66855133D01*
X78994704Y-66807514D01*
X78851847Y-66807514D01*
X78756609Y-66855133D01*
X78708990Y-66902752D01*
X78661371Y-66997990D01*
X78661371Y-67283704D01*
X78708990Y-67378942D01*
X78756609Y-67426561D01*
X78851847Y-67474180D01*
X78994704Y-67474180D01*
X78089942Y-67474180D02*
X78185180Y-67426561D01*
X78232800Y-67331323D01*
X78232800Y-66474180D01*
X77708990Y-66807514D02*
X77708990Y-67474180D01*
X77708990Y-66902752D02*
X77661371Y-66855133D01*
X77566133Y-66807514D01*
X77423276Y-66807514D01*
X77328038Y-66855133D01*
X77280419Y-66950371D01*
X77280419Y-67474180D01*
X84185180Y-17639380D02*
X84185180Y-16639380D01*
X83947085Y-16639380D01*
X83804228Y-16687000D01*
X83708990Y-16782238D01*
X83661371Y-16877476D01*
X83613752Y-17067952D01*
X83613752Y-17210809D01*
X83661371Y-17401285D01*
X83708990Y-17496523D01*
X83804228Y-17591761D01*
X83947085Y-17639380D01*
X84185180Y-17639380D01*
X82613752Y-17544142D02*
X82661371Y-17591761D01*
X82804228Y-17639380D01*
X82899466Y-17639380D01*
X83042323Y-17591761D01*
X83137561Y-17496523D01*
X83185180Y-17401285D01*
X83232800Y-17210809D01*
X83232800Y-17067952D01*
X83185180Y-16877476D01*
X83137561Y-16782238D01*
X83042323Y-16687000D01*
X82899466Y-16639380D01*
X82804228Y-16639380D01*
X82661371Y-16687000D01*
X82613752Y-16734619D01*
X81613752Y-17544142D02*
X81661371Y-17591761D01*
X81804228Y-17639380D01*
X81899466Y-17639380D01*
X82042323Y-17591761D01*
X82137561Y-17496523D01*
X82185180Y-17401285D01*
X82232800Y-17210809D01*
X82232800Y-17067952D01*
X82185180Y-16877476D01*
X82137561Y-16782238D01*
X82042323Y-16687000D01*
X81899466Y-16639380D01*
X81804228Y-16639380D01*
X81661371Y-16687000D01*
X81613752Y-16734619D01*
X80423276Y-17639380D02*
X80423276Y-16639380D01*
X79994704Y-17591761D02*
X79899466Y-17639380D01*
X79708990Y-17639380D01*
X79613752Y-17591761D01*
X79566133Y-17496523D01*
X79566133Y-17448904D01*
X79613752Y-17353666D01*
X79708990Y-17306047D01*
X79851847Y-17306047D01*
X79947085Y-17258428D01*
X79994704Y-17163190D01*
X79994704Y-17115571D01*
X79947085Y-17020333D01*
X79851847Y-16972714D01*
X79708990Y-16972714D01*
X79613752Y-17020333D01*
X78994704Y-17639380D02*
X79089942Y-17591761D01*
X79137561Y-17544142D01*
X79185180Y-17448904D01*
X79185180Y-17163190D01*
X79137561Y-17067952D01*
X79089942Y-17020333D01*
X78994704Y-16972714D01*
X78851847Y-16972714D01*
X78756609Y-17020333D01*
X78708990Y-17067952D01*
X78661371Y-17163190D01*
X78661371Y-17448904D01*
X78708990Y-17544142D01*
X78756609Y-17591761D01*
X78851847Y-17639380D01*
X78994704Y-17639380D01*
X78089942Y-17639380D02*
X78185180Y-17591761D01*
X78232800Y-17496523D01*
X78232800Y-16639380D01*
X77708990Y-16972714D02*
X77708990Y-17639380D01*
X77708990Y-17067952D02*
X77661371Y-17020333D01*
X77566133Y-16972714D01*
X77423276Y-16972714D01*
X77328038Y-17020333D01*
X77280419Y-17115571D01*
X77280419Y-17639380D01*
X80507333Y-67896580D02*
X79840666Y-68896580D01*
X79840666Y-67896580D02*
X80507333Y-68896580D01*
X80507333Y-18061780D02*
X79840666Y-19061780D01*
X79840666Y-18061780D02*
X80507333Y-19061780D01*
D11*
X51184552Y-70268180D02*
X51517885Y-69791990D01*
X51755980Y-70268180D02*
X51755980Y-69268180D01*
X51375028Y-69268180D01*
X51279790Y-69315800D01*
X51232171Y-69363419D01*
X51184552Y-69458657D01*
X51184552Y-69601514D01*
X51232171Y-69696752D01*
X51279790Y-69744371D01*
X51375028Y-69791990D01*
X51755980Y-69791990D01*
X50232171Y-70268180D02*
X50803600Y-70268180D01*
X50517885Y-70268180D02*
X50517885Y-69268180D01*
X50613123Y-69411038D01*
X50708361Y-69506276D01*
X50803600Y-69553895D01*
X49803599Y-70172942D02*
X49755980Y-70220561D01*
X49803599Y-70268180D01*
X49851219Y-70220561D01*
X49803599Y-70172942D01*
X49803599Y-70268180D01*
X48898838Y-69601514D02*
X48898838Y-70268180D01*
X49136933Y-69220561D02*
X49375028Y-69934847D01*
X48755980Y-69934847D01*
X51184552Y-20433380D02*
X51517885Y-19957190D01*
X51755980Y-20433380D02*
X51755980Y-19433380D01*
X51375028Y-19433380D01*
X51279790Y-19481000D01*
X51232171Y-19528619D01*
X51184552Y-19623857D01*
X51184552Y-19766714D01*
X51232171Y-19861952D01*
X51279790Y-19909571D01*
X51375028Y-19957190D01*
X51755980Y-19957190D01*
X50232171Y-20433380D02*
X50803600Y-20433380D01*
X50517885Y-20433380D02*
X50517885Y-19433380D01*
X50613123Y-19576238D01*
X50708361Y-19671476D01*
X50803600Y-19719095D01*
X49803599Y-20338142D02*
X49755980Y-20385761D01*
X49803599Y-20433380D01*
X49851219Y-20385761D01*
X49803599Y-20338142D01*
X49803599Y-20433380D01*
X48898838Y-19766714D02*
X48898838Y-20433380D01*
X49136933Y-19385761D02*
X49375028Y-20100047D01*
X48755980Y-20100047D01*
X52093466Y-68383761D02*
X52093466Y-66383761D01*
X51426800Y-67812333D01*
X50760133Y-66383761D01*
X50760133Y-68383761D01*
X49902990Y-67812333D02*
X48950609Y-67812333D01*
X50093466Y-68383761D02*
X49426800Y-66383761D01*
X48760133Y-68383761D01*
X48283942Y-66383761D02*
X46950609Y-68383761D01*
X46950609Y-66383761D02*
X48283942Y-68383761D01*
X46188704Y-68383761D02*
X46188704Y-66383761D01*
X45712514Y-66383761D01*
X45426800Y-66479000D01*
X45236323Y-66669476D01*
X45141085Y-66859952D01*
X45045847Y-67240904D01*
X45045847Y-67526619D01*
X45141085Y-67907571D01*
X45236323Y-68098047D01*
X45426800Y-68288523D01*
X45712514Y-68383761D01*
X46188704Y-68383761D01*
X43331561Y-67050428D02*
X43331561Y-68383761D01*
X44188704Y-67050428D02*
X44188704Y-68098047D01*
X44093466Y-68288523D01*
X43902990Y-68383761D01*
X43617276Y-68383761D01*
X43426800Y-68288523D01*
X43331561Y-68193285D01*
X42379180Y-68383761D02*
X42379180Y-67050428D01*
X42379180Y-66383761D02*
X42474419Y-66479000D01*
X42379180Y-66574238D01*
X42283942Y-66479000D01*
X42379180Y-66383761D01*
X42379180Y-66574238D01*
X41426800Y-67050428D02*
X41426800Y-68383761D01*
X41426800Y-67240904D02*
X41331561Y-67145666D01*
X41141085Y-67050428D01*
X40855371Y-67050428D01*
X40664895Y-67145666D01*
X40569657Y-67336142D01*
X40569657Y-68383761D01*
X39331561Y-68383761D02*
X39522038Y-68288523D01*
X39617276Y-68193285D01*
X39712514Y-68002809D01*
X39712514Y-67431380D01*
X39617276Y-67240904D01*
X39522038Y-67145666D01*
X39331561Y-67050428D01*
X39045847Y-67050428D01*
X38855371Y-67145666D01*
X38760133Y-67240904D01*
X38664895Y-67431380D01*
X38664895Y-68002809D01*
X38760133Y-68193285D01*
X38855371Y-68288523D01*
X39045847Y-68383761D01*
X39331561Y-68383761D01*
X52093466Y-18548961D02*
X52093466Y-16548961D01*
X51426800Y-17977533D01*
X50760133Y-16548961D01*
X50760133Y-18548961D01*
X49902990Y-17977533D02*
X48950609Y-17977533D01*
X50093466Y-18548961D02*
X49426800Y-16548961D01*
X48760133Y-18548961D01*
X48283942Y-16548961D02*
X46950609Y-18548961D01*
X46950609Y-16548961D02*
X48283942Y-18548961D01*
X46188704Y-18548961D02*
X46188704Y-16548961D01*
X45712514Y-16548961D01*
X45426800Y-16644200D01*
X45236323Y-16834676D01*
X45141085Y-17025152D01*
X45045847Y-17406104D01*
X45045847Y-17691819D01*
X45141085Y-18072771D01*
X45236323Y-18263247D01*
X45426800Y-18453723D01*
X45712514Y-18548961D01*
X46188704Y-18548961D01*
X43331561Y-17215628D02*
X43331561Y-18548961D01*
X44188704Y-17215628D02*
X44188704Y-18263247D01*
X44093466Y-18453723D01*
X43902990Y-18548961D01*
X43617276Y-18548961D01*
X43426800Y-18453723D01*
X43331561Y-18358485D01*
X42379180Y-18548961D02*
X42379180Y-17215628D01*
X42379180Y-16548961D02*
X42474419Y-16644200D01*
X42379180Y-16739438D01*
X42283942Y-16644200D01*
X42379180Y-16548961D01*
X42379180Y-16739438D01*
X41426800Y-17215628D02*
X41426800Y-18548961D01*
X41426800Y-17406104D02*
X41331561Y-17310866D01*
X41141085Y-17215628D01*
X40855371Y-17215628D01*
X40664895Y-17310866D01*
X40569657Y-17501342D01*
X40569657Y-18548961D01*
X39331561Y-18548961D02*
X39522038Y-18453723D01*
X39617276Y-18358485D01*
X39712514Y-18168009D01*
X39712514Y-17596580D01*
X39617276Y-17406104D01*
X39522038Y-17310866D01*
X39331561Y-17215628D01*
X39045847Y-17215628D01*
X38855371Y-17310866D01*
X38760133Y-17406104D01*
X38664895Y-17596580D01*
X38664895Y-18168009D01*
X38760133Y-18358485D01*
X38855371Y-18453723D01*
X39045847Y-18548961D01*
X39331561Y-18548961D01*
D10*
X52056838Y-72681133D02*
X52104457Y-72633514D01*
X52199695Y-72490657D01*
X52247314Y-72395419D01*
X52294933Y-72252561D01*
X52342552Y-72014466D01*
X52342552Y-71823990D01*
X52294933Y-71585895D01*
X52247314Y-71443038D01*
X52199695Y-71347800D01*
X52104457Y-71204942D01*
X52056838Y-71157323D01*
X51247314Y-72252561D02*
X51342552Y-72300180D01*
X51533028Y-72300180D01*
X51628266Y-72252561D01*
X51675885Y-72204942D01*
X51723504Y-72109704D01*
X51723504Y-71823990D01*
X51675885Y-71728752D01*
X51628266Y-71681133D01*
X51533028Y-71633514D01*
X51342552Y-71633514D01*
X51247314Y-71681133D01*
X50913980Y-72681133D02*
X50866361Y-72633514D01*
X50771123Y-72490657D01*
X50723504Y-72395419D01*
X50675885Y-72252561D01*
X50628266Y-72014466D01*
X50628266Y-71823990D01*
X50675885Y-71585895D01*
X50723504Y-71443038D01*
X50771123Y-71347800D01*
X50866361Y-71204942D01*
X50913980Y-71157323D01*
X50199695Y-71395419D02*
X50152076Y-71347800D01*
X50056838Y-71300180D01*
X49818742Y-71300180D01*
X49723504Y-71347800D01*
X49675885Y-71395419D01*
X49628266Y-71490657D01*
X49628266Y-71585895D01*
X49675885Y-71728752D01*
X50247314Y-72300180D01*
X49628266Y-72300180D01*
X49009219Y-71300180D02*
X48913980Y-71300180D01*
X48818742Y-71347800D01*
X48771123Y-71395419D01*
X48723504Y-71490657D01*
X48675885Y-71681133D01*
X48675885Y-71919228D01*
X48723504Y-72109704D01*
X48771123Y-72204942D01*
X48818742Y-72252561D01*
X48913980Y-72300180D01*
X49009219Y-72300180D01*
X49104457Y-72252561D01*
X49152076Y-72204942D01*
X49199695Y-72109704D01*
X49247314Y-71919228D01*
X49247314Y-71681133D01*
X49199695Y-71490657D01*
X49152076Y-71395419D01*
X49104457Y-71347800D01*
X49009219Y-71300180D01*
X48294933Y-71395419D02*
X48247314Y-71347800D01*
X48152076Y-71300180D01*
X47913980Y-71300180D01*
X47818742Y-71347800D01*
X47771123Y-71395419D01*
X47723504Y-71490657D01*
X47723504Y-71585895D01*
X47771123Y-71728752D01*
X48342552Y-72300180D01*
X47723504Y-72300180D01*
X47390171Y-71300180D02*
X46771123Y-71300180D01*
X47104457Y-71681133D01*
X46961600Y-71681133D01*
X46866361Y-71728752D01*
X46818742Y-71776371D01*
X46771123Y-71871609D01*
X46771123Y-72109704D01*
X46818742Y-72204942D01*
X46866361Y-72252561D01*
X46961600Y-72300180D01*
X47247314Y-72300180D01*
X47342552Y-72252561D01*
X47390171Y-72204942D01*
X45628266Y-72014466D02*
X45152076Y-72014466D01*
X45723504Y-72300180D02*
X45390171Y-71300180D01*
X45056838Y-72300180D01*
X44580647Y-72300180D02*
X44675885Y-72252561D01*
X44723504Y-72157323D01*
X44723504Y-71300180D01*
X43771123Y-72300180D02*
X43771123Y-71776371D01*
X43818742Y-71681133D01*
X43913980Y-71633514D01*
X44104457Y-71633514D01*
X44199695Y-71681133D01*
X43771123Y-72252561D02*
X43866361Y-72300180D01*
X44104457Y-72300180D01*
X44199695Y-72252561D01*
X44247314Y-72157323D01*
X44247314Y-72062085D01*
X44199695Y-71966847D01*
X44104457Y-71919228D01*
X43866361Y-71919228D01*
X43771123Y-71871609D01*
X43294933Y-71633514D02*
X43294933Y-72300180D01*
X43294933Y-71728752D02*
X43247314Y-71681133D01*
X43152076Y-71633514D01*
X43009219Y-71633514D01*
X42913980Y-71681133D01*
X42866361Y-71776371D01*
X42866361Y-72300180D01*
X41152076Y-72300180D02*
X41628266Y-72300180D01*
X41628266Y-71300180D01*
X40675885Y-72300180D02*
X40771123Y-72252561D01*
X40818742Y-72204942D01*
X40866361Y-72109704D01*
X40866361Y-71823990D01*
X40818742Y-71728752D01*
X40771123Y-71681133D01*
X40675885Y-71633514D01*
X40533028Y-71633514D01*
X40437790Y-71681133D01*
X40390171Y-71728752D01*
X40342552Y-71823990D01*
X40342552Y-72109704D01*
X40390171Y-72204942D01*
X40437790Y-72252561D01*
X40533028Y-72300180D01*
X40675885Y-72300180D01*
X39913980Y-72300180D02*
X39913980Y-71633514D01*
X39913980Y-71728752D02*
X39866361Y-71681133D01*
X39771123Y-71633514D01*
X39628266Y-71633514D01*
X39533028Y-71681133D01*
X39485409Y-71776371D01*
X39485409Y-72300180D01*
X39485409Y-71776371D02*
X39437790Y-71681133D01*
X39342552Y-71633514D01*
X39199695Y-71633514D01*
X39104457Y-71681133D01*
X39056838Y-71776371D01*
X39056838Y-72300180D01*
X38152076Y-72300180D02*
X38152076Y-71776371D01*
X38199695Y-71681133D01*
X38294933Y-71633514D01*
X38485409Y-71633514D01*
X38580647Y-71681133D01*
X38152076Y-72252561D02*
X38247314Y-72300180D01*
X38485409Y-72300180D01*
X38580647Y-72252561D01*
X38628266Y-72157323D01*
X38628266Y-72062085D01*
X38580647Y-71966847D01*
X38485409Y-71919228D01*
X38247314Y-71919228D01*
X38152076Y-71871609D01*
X37771123Y-72300180D02*
X37247314Y-71633514D01*
X37771123Y-71633514D02*
X37247314Y-72300180D01*
X52056838Y-22846333D02*
X52104457Y-22798714D01*
X52199695Y-22655857D01*
X52247314Y-22560619D01*
X52294933Y-22417761D01*
X52342552Y-22179666D01*
X52342552Y-21989190D01*
X52294933Y-21751095D01*
X52247314Y-21608238D01*
X52199695Y-21513000D01*
X52104457Y-21370142D01*
X52056838Y-21322523D01*
X51247314Y-22417761D02*
X51342552Y-22465380D01*
X51533028Y-22465380D01*
X51628266Y-22417761D01*
X51675885Y-22370142D01*
X51723504Y-22274904D01*
X51723504Y-21989190D01*
X51675885Y-21893952D01*
X51628266Y-21846333D01*
X51533028Y-21798714D01*
X51342552Y-21798714D01*
X51247314Y-21846333D01*
X50913980Y-22846333D02*
X50866361Y-22798714D01*
X50771123Y-22655857D01*
X50723504Y-22560619D01*
X50675885Y-22417761D01*
X50628266Y-22179666D01*
X50628266Y-21989190D01*
X50675885Y-21751095D01*
X50723504Y-21608238D01*
X50771123Y-21513000D01*
X50866361Y-21370142D01*
X50913980Y-21322523D01*
X50199695Y-21560619D02*
X50152076Y-21513000D01*
X50056838Y-21465380D01*
X49818742Y-21465380D01*
X49723504Y-21513000D01*
X49675885Y-21560619D01*
X49628266Y-21655857D01*
X49628266Y-21751095D01*
X49675885Y-21893952D01*
X50247314Y-22465380D01*
X49628266Y-22465380D01*
X49009219Y-21465380D02*
X48913980Y-21465380D01*
X48818742Y-21513000D01*
X48771123Y-21560619D01*
X48723504Y-21655857D01*
X48675885Y-21846333D01*
X48675885Y-22084428D01*
X48723504Y-22274904D01*
X48771123Y-22370142D01*
X48818742Y-22417761D01*
X48913980Y-22465380D01*
X49009219Y-22465380D01*
X49104457Y-22417761D01*
X49152076Y-22370142D01*
X49199695Y-22274904D01*
X49247314Y-22084428D01*
X49247314Y-21846333D01*
X49199695Y-21655857D01*
X49152076Y-21560619D01*
X49104457Y-21513000D01*
X49009219Y-21465380D01*
X48294933Y-21560619D02*
X48247314Y-21513000D01*
X48152076Y-21465380D01*
X47913980Y-21465380D01*
X47818742Y-21513000D01*
X47771123Y-21560619D01*
X47723504Y-21655857D01*
X47723504Y-21751095D01*
X47771123Y-21893952D01*
X48342552Y-22465380D01*
X47723504Y-22465380D01*
X47390171Y-21465380D02*
X46771123Y-21465380D01*
X47104457Y-21846333D01*
X46961600Y-21846333D01*
X46866361Y-21893952D01*
X46818742Y-21941571D01*
X46771123Y-22036809D01*
X46771123Y-22274904D01*
X46818742Y-22370142D01*
X46866361Y-22417761D01*
X46961600Y-22465380D01*
X47247314Y-22465380D01*
X47342552Y-22417761D01*
X47390171Y-22370142D01*
X45628266Y-22179666D02*
X45152076Y-22179666D01*
X45723504Y-22465380D02*
X45390171Y-21465380D01*
X45056838Y-22465380D01*
X44580647Y-22465380D02*
X44675885Y-22417761D01*
X44723504Y-22322523D01*
X44723504Y-21465380D01*
X43771123Y-22465380D02*
X43771123Y-21941571D01*
X43818742Y-21846333D01*
X43913980Y-21798714D01*
X44104457Y-21798714D01*
X44199695Y-21846333D01*
X43771123Y-22417761D02*
X43866361Y-22465380D01*
X44104457Y-22465380D01*
X44199695Y-22417761D01*
X44247314Y-22322523D01*
X44247314Y-22227285D01*
X44199695Y-22132047D01*
X44104457Y-22084428D01*
X43866361Y-22084428D01*
X43771123Y-22036809D01*
X43294933Y-21798714D02*
X43294933Y-22465380D01*
X43294933Y-21893952D02*
X43247314Y-21846333D01*
X43152076Y-21798714D01*
X43009219Y-21798714D01*
X42913980Y-21846333D01*
X42866361Y-21941571D01*
X42866361Y-22465380D01*
X41152076Y-22465380D02*
X41628266Y-22465380D01*
X41628266Y-21465380D01*
X40675885Y-22465380D02*
X40771123Y-22417761D01*
X40818742Y-22370142D01*
X40866361Y-22274904D01*
X40866361Y-21989190D01*
X40818742Y-21893952D01*
X40771123Y-21846333D01*
X40675885Y-21798714D01*
X40533028Y-21798714D01*
X40437790Y-21846333D01*
X40390171Y-21893952D01*
X40342552Y-21989190D01*
X40342552Y-22274904D01*
X40390171Y-22370142D01*
X40437790Y-22417761D01*
X40533028Y-22465380D01*
X40675885Y-22465380D01*
X39913980Y-22465380D02*
X39913980Y-21798714D01*
X39913980Y-21893952D02*
X39866361Y-21846333D01*
X39771123Y-21798714D01*
X39628266Y-21798714D01*
X39533028Y-21846333D01*
X39485409Y-21941571D01*
X39485409Y-22465380D01*
X39485409Y-21941571D02*
X39437790Y-21846333D01*
X39342552Y-21798714D01*
X39199695Y-21798714D01*
X39104457Y-21846333D01*
X39056838Y-21941571D01*
X39056838Y-22465380D01*
X38152076Y-22465380D02*
X38152076Y-21941571D01*
X38199695Y-21846333D01*
X38294933Y-21798714D01*
X38485409Y-21798714D01*
X38580647Y-21846333D01*
X38152076Y-22417761D02*
X38247314Y-22465380D01*
X38485409Y-22465380D01*
X38580647Y-22417761D01*
X38628266Y-22322523D01*
X38628266Y-22227285D01*
X38580647Y-22132047D01*
X38485409Y-22084428D01*
X38247314Y-22084428D01*
X38152076Y-22036809D01*
X37771123Y-22465380D02*
X37247314Y-21798714D01*
X37771123Y-21798714D02*
X37247314Y-22465380D01*
X81066133Y-74906980D02*
X80399466Y-75906980D01*
X80399466Y-74906980D02*
X81066133Y-75906980D01*
X81066133Y-25072180D02*
X80399466Y-26072180D01*
X80399466Y-25072180D02*
X81066133Y-26072180D01*
X84388380Y-77227780D02*
X84388380Y-76227780D01*
X84150285Y-76227780D01*
X84007428Y-76275400D01*
X83912190Y-76370638D01*
X83864571Y-76465876D01*
X83816952Y-76656352D01*
X83816952Y-76799209D01*
X83864571Y-76989685D01*
X83912190Y-77084923D01*
X84007428Y-77180161D01*
X84150285Y-77227780D01*
X84388380Y-77227780D01*
X82816952Y-77132542D02*
X82864571Y-77180161D01*
X83007428Y-77227780D01*
X83102666Y-77227780D01*
X83245523Y-77180161D01*
X83340761Y-77084923D01*
X83388380Y-76989685D01*
X83436000Y-76799209D01*
X83436000Y-76656352D01*
X83388380Y-76465876D01*
X83340761Y-76370638D01*
X83245523Y-76275400D01*
X83102666Y-76227780D01*
X83007428Y-76227780D01*
X82864571Y-76275400D01*
X82816952Y-76323019D01*
X81816952Y-77132542D02*
X81864571Y-77180161D01*
X82007428Y-77227780D01*
X82102666Y-77227780D01*
X82245523Y-77180161D01*
X82340761Y-77084923D01*
X82388380Y-76989685D01*
X82436000Y-76799209D01*
X82436000Y-76656352D01*
X82388380Y-76465876D01*
X82340761Y-76370638D01*
X82245523Y-76275400D01*
X82102666Y-76227780D01*
X82007428Y-76227780D01*
X81864571Y-76275400D01*
X81816952Y-76323019D01*
X80626476Y-77227780D02*
X80626476Y-76227780D01*
X80197904Y-77180161D02*
X80102666Y-77227780D01*
X79912190Y-77227780D01*
X79816952Y-77180161D01*
X79769333Y-77084923D01*
X79769333Y-77037304D01*
X79816952Y-76942066D01*
X79912190Y-76894447D01*
X80055047Y-76894447D01*
X80150285Y-76846828D01*
X80197904Y-76751590D01*
X80197904Y-76703971D01*
X80150285Y-76608733D01*
X80055047Y-76561114D01*
X79912190Y-76561114D01*
X79816952Y-76608733D01*
X79197904Y-77227780D02*
X79293142Y-77180161D01*
X79340761Y-77132542D01*
X79388380Y-77037304D01*
X79388380Y-76751590D01*
X79340761Y-76656352D01*
X79293142Y-76608733D01*
X79197904Y-76561114D01*
X79055047Y-76561114D01*
X78959809Y-76608733D01*
X78912190Y-76656352D01*
X78864571Y-76751590D01*
X78864571Y-77037304D01*
X78912190Y-77132542D01*
X78959809Y-77180161D01*
X79055047Y-77227780D01*
X79197904Y-77227780D01*
X78293142Y-77227780D02*
X78388380Y-77180161D01*
X78436000Y-77084923D01*
X78436000Y-76227780D01*
X77912190Y-76561114D02*
X77912190Y-77227780D01*
X77912190Y-76656352D02*
X77864571Y-76608733D01*
X77769333Y-76561114D01*
X77626476Y-76561114D01*
X77531238Y-76608733D01*
X77483619Y-76703971D01*
X77483619Y-77227780D01*
X84388380Y-27392980D02*
X84388380Y-26392980D01*
X84150285Y-26392980D01*
X84007428Y-26440600D01*
X83912190Y-26535838D01*
X83864571Y-26631076D01*
X83816952Y-26821552D01*
X83816952Y-26964409D01*
X83864571Y-27154885D01*
X83912190Y-27250123D01*
X84007428Y-27345361D01*
X84150285Y-27392980D01*
X84388380Y-27392980D01*
X82816952Y-27297742D02*
X82864571Y-27345361D01*
X83007428Y-27392980D01*
X83102666Y-27392980D01*
X83245523Y-27345361D01*
X83340761Y-27250123D01*
X83388380Y-27154885D01*
X83436000Y-26964409D01*
X83436000Y-26821552D01*
X83388380Y-26631076D01*
X83340761Y-26535838D01*
X83245523Y-26440600D01*
X83102666Y-26392980D01*
X83007428Y-26392980D01*
X82864571Y-26440600D01*
X82816952Y-26488219D01*
X81816952Y-27297742D02*
X81864571Y-27345361D01*
X82007428Y-27392980D01*
X82102666Y-27392980D01*
X82245523Y-27345361D01*
X82340761Y-27250123D01*
X82388380Y-27154885D01*
X82436000Y-26964409D01*
X82436000Y-26821552D01*
X82388380Y-26631076D01*
X82340761Y-26535838D01*
X82245523Y-26440600D01*
X82102666Y-26392980D01*
X82007428Y-26392980D01*
X81864571Y-26440600D01*
X81816952Y-26488219D01*
X80626476Y-27392980D02*
X80626476Y-26392980D01*
X80197904Y-27345361D02*
X80102666Y-27392980D01*
X79912190Y-27392980D01*
X79816952Y-27345361D01*
X79769333Y-27250123D01*
X79769333Y-27202504D01*
X79816952Y-27107266D01*
X79912190Y-27059647D01*
X80055047Y-27059647D01*
X80150285Y-27012028D01*
X80197904Y-26916790D01*
X80197904Y-26869171D01*
X80150285Y-26773933D01*
X80055047Y-26726314D01*
X79912190Y-26726314D01*
X79816952Y-26773933D01*
X79197904Y-27392980D02*
X79293142Y-27345361D01*
X79340761Y-27297742D01*
X79388380Y-27202504D01*
X79388380Y-26916790D01*
X79340761Y-26821552D01*
X79293142Y-26773933D01*
X79197904Y-26726314D01*
X79055047Y-26726314D01*
X78959809Y-26773933D01*
X78912190Y-26821552D01*
X78864571Y-26916790D01*
X78864571Y-27202504D01*
X78912190Y-27297742D01*
X78959809Y-27345361D01*
X79055047Y-27392980D01*
X79197904Y-27392980D01*
X78293142Y-27392980D02*
X78388380Y-27345361D01*
X78436000Y-27250123D01*
X78436000Y-26392980D01*
X77912190Y-26726314D02*
X77912190Y-27392980D01*
X77912190Y-26821552D02*
X77864571Y-26773933D01*
X77769333Y-26726314D01*
X77626476Y-26726314D01*
X77531238Y-26773933D01*
X77483619Y-26869171D01*
X77483619Y-27392980D01*
X92269219Y-98204142D02*
X93269219Y-98204142D01*
X92554933Y-97870809D01*
X93269219Y-97537476D01*
X92269219Y-97537476D01*
X92840647Y-96918428D02*
X92888266Y-97013666D01*
X92935885Y-97061285D01*
X93031123Y-97108904D01*
X93078742Y-97108904D01*
X93173980Y-97061285D01*
X93221600Y-97013666D01*
X93269219Y-96918428D01*
X93269219Y-96727952D01*
X93221600Y-96632714D01*
X93173980Y-96585095D01*
X93078742Y-96537476D01*
X93031123Y-96537476D01*
X92935885Y-96585095D01*
X92888266Y-96632714D01*
X92840647Y-96727952D01*
X92840647Y-96918428D01*
X92793028Y-97013666D01*
X92745409Y-97061285D01*
X92650171Y-97108904D01*
X92459695Y-97108904D01*
X92364457Y-97061285D01*
X92316838Y-97013666D01*
X92269219Y-96918428D01*
X92269219Y-96727952D01*
X92316838Y-96632714D01*
X92364457Y-96585095D01*
X92459695Y-96537476D01*
X92650171Y-96537476D01*
X92745409Y-96585095D01*
X92793028Y-96632714D01*
X92840647Y-96727952D01*
X93269219Y-95680333D02*
X93269219Y-95870809D01*
X93221600Y-95966047D01*
X93173980Y-96013666D01*
X93031123Y-96108904D01*
X92840647Y-96156523D01*
X92459695Y-96156523D01*
X92364457Y-96108904D01*
X92316838Y-96061285D01*
X92269219Y-95966047D01*
X92269219Y-95775571D01*
X92316838Y-95680333D01*
X92364457Y-95632714D01*
X92459695Y-95585095D01*
X92697790Y-95585095D01*
X92793028Y-95632714D01*
X92840647Y-95680333D01*
X92888266Y-95775571D01*
X92888266Y-95966047D01*
X92840647Y-96061285D01*
X92793028Y-96108904D01*
X92697790Y-96156523D01*
X92935885Y-94727952D02*
X92269219Y-94727952D01*
X93316838Y-94966047D02*
X92602552Y-95204142D01*
X92602552Y-94585095D01*
X93269219Y-94013666D02*
X93269219Y-93918428D01*
X93221600Y-93823190D01*
X93173980Y-93775571D01*
X93078742Y-93727952D01*
X92888266Y-93680333D01*
X92650171Y-93680333D01*
X92459695Y-93727952D01*
X92364457Y-93775571D01*
X92316838Y-93823190D01*
X92269219Y-93918428D01*
X92269219Y-94013666D01*
X92316838Y-94108904D01*
X92364457Y-94156523D01*
X92459695Y-94204142D01*
X92650171Y-94251761D01*
X92888266Y-94251761D01*
X93078742Y-94204142D01*
X93173980Y-94156523D01*
X93221600Y-94108904D01*
X93269219Y-94013666D01*
X92554933Y-92537476D02*
X92554933Y-92061285D01*
X92269219Y-92632714D02*
X93269219Y-92299380D01*
X92269219Y-91966047D01*
X92269219Y-91489857D02*
X92316838Y-91585095D01*
X92412076Y-91632714D01*
X93269219Y-91632714D01*
X92269219Y-90680333D02*
X92793028Y-90680333D01*
X92888266Y-90727952D01*
X92935885Y-90823190D01*
X92935885Y-91013666D01*
X92888266Y-91108904D01*
X92316838Y-90680333D02*
X92269219Y-90775571D01*
X92269219Y-91013666D01*
X92316838Y-91108904D01*
X92412076Y-91156523D01*
X92507314Y-91156523D01*
X92602552Y-91108904D01*
X92650171Y-91013666D01*
X92650171Y-90775571D01*
X92697790Y-90680333D01*
X92935885Y-90204142D02*
X92269219Y-90204142D01*
X92840647Y-90204142D02*
X92888266Y-90156523D01*
X92935885Y-90061285D01*
X92935885Y-89918428D01*
X92888266Y-89823190D01*
X92793028Y-89775571D01*
X92269219Y-89775571D01*
X92269219Y-88061285D02*
X92269219Y-88537476D01*
X93269219Y-88537476D01*
X92269219Y-87585095D02*
X92316838Y-87680333D01*
X92364457Y-87727952D01*
X92459695Y-87775571D01*
X92745409Y-87775571D01*
X92840647Y-87727952D01*
X92888266Y-87680333D01*
X92935885Y-87585095D01*
X92935885Y-87442238D01*
X92888266Y-87347000D01*
X92840647Y-87299380D01*
X92745409Y-87251761D01*
X92459695Y-87251761D01*
X92364457Y-87299380D01*
X92316838Y-87347000D01*
X92269219Y-87442238D01*
X92269219Y-87585095D01*
X92269219Y-86823190D02*
X92935885Y-86823190D01*
X92840647Y-86823190D02*
X92888266Y-86775571D01*
X92935885Y-86680333D01*
X92935885Y-86537476D01*
X92888266Y-86442238D01*
X92793028Y-86394619D01*
X92269219Y-86394619D01*
X92793028Y-86394619D02*
X92888266Y-86347000D01*
X92935885Y-86251761D01*
X92935885Y-86108904D01*
X92888266Y-86013666D01*
X92793028Y-85966047D01*
X92269219Y-85966047D01*
X92269219Y-85061285D02*
X92793028Y-85061285D01*
X92888266Y-85108904D01*
X92935885Y-85204142D01*
X92935885Y-85394619D01*
X92888266Y-85489857D01*
X92316838Y-85061285D02*
X92269219Y-85156523D01*
X92269219Y-85394619D01*
X92316838Y-85489857D01*
X92412076Y-85537476D01*
X92507314Y-85537476D01*
X92602552Y-85489857D01*
X92650171Y-85394619D01*
X92650171Y-85156523D01*
X92697790Y-85061285D01*
X92269219Y-84680333D02*
X92935885Y-84156523D01*
X92935885Y-84680333D02*
X92269219Y-84156523D01*
X92269219Y-48369342D02*
X93269219Y-48369342D01*
X92554933Y-48036009D01*
X93269219Y-47702676D01*
X92269219Y-47702676D01*
X92840647Y-47083628D02*
X92888266Y-47178866D01*
X92935885Y-47226485D01*
X93031123Y-47274104D01*
X93078742Y-47274104D01*
X93173980Y-47226485D01*
X93221600Y-47178866D01*
X93269219Y-47083628D01*
X93269219Y-46893152D01*
X93221600Y-46797914D01*
X93173980Y-46750295D01*
X93078742Y-46702676D01*
X93031123Y-46702676D01*
X92935885Y-46750295D01*
X92888266Y-46797914D01*
X92840647Y-46893152D01*
X92840647Y-47083628D01*
X92793028Y-47178866D01*
X92745409Y-47226485D01*
X92650171Y-47274104D01*
X92459695Y-47274104D01*
X92364457Y-47226485D01*
X92316838Y-47178866D01*
X92269219Y-47083628D01*
X92269219Y-46893152D01*
X92316838Y-46797914D01*
X92364457Y-46750295D01*
X92459695Y-46702676D01*
X92650171Y-46702676D01*
X92745409Y-46750295D01*
X92793028Y-46797914D01*
X92840647Y-46893152D01*
X93269219Y-45845533D02*
X93269219Y-46036009D01*
X93221600Y-46131247D01*
X93173980Y-46178866D01*
X93031123Y-46274104D01*
X92840647Y-46321723D01*
X92459695Y-46321723D01*
X92364457Y-46274104D01*
X92316838Y-46226485D01*
X92269219Y-46131247D01*
X92269219Y-45940771D01*
X92316838Y-45845533D01*
X92364457Y-45797914D01*
X92459695Y-45750295D01*
X92697790Y-45750295D01*
X92793028Y-45797914D01*
X92840647Y-45845533D01*
X92888266Y-45940771D01*
X92888266Y-46131247D01*
X92840647Y-46226485D01*
X92793028Y-46274104D01*
X92697790Y-46321723D01*
X92935885Y-44893152D02*
X92269219Y-44893152D01*
X93316838Y-45131247D02*
X92602552Y-45369342D01*
X92602552Y-44750295D01*
X93269219Y-44178866D02*
X93269219Y-44083628D01*
X93221600Y-43988390D01*
X93173980Y-43940771D01*
X93078742Y-43893152D01*
X92888266Y-43845533D01*
X92650171Y-43845533D01*
X92459695Y-43893152D01*
X92364457Y-43940771D01*
X92316838Y-43988390D01*
X92269219Y-44083628D01*
X92269219Y-44178866D01*
X92316838Y-44274104D01*
X92364457Y-44321723D01*
X92459695Y-44369342D01*
X92650171Y-44416961D01*
X92888266Y-44416961D01*
X93078742Y-44369342D01*
X93173980Y-44321723D01*
X93221600Y-44274104D01*
X93269219Y-44178866D01*
X92554933Y-42702676D02*
X92554933Y-42226485D01*
X92269219Y-42797914D02*
X93269219Y-42464580D01*
X92269219Y-42131247D01*
X92269219Y-41655057D02*
X92316838Y-41750295D01*
X92412076Y-41797914D01*
X93269219Y-41797914D01*
X92269219Y-40845533D02*
X92793028Y-40845533D01*
X92888266Y-40893152D01*
X92935885Y-40988390D01*
X92935885Y-41178866D01*
X92888266Y-41274104D01*
X92316838Y-40845533D02*
X92269219Y-40940771D01*
X92269219Y-41178866D01*
X92316838Y-41274104D01*
X92412076Y-41321723D01*
X92507314Y-41321723D01*
X92602552Y-41274104D01*
X92650171Y-41178866D01*
X92650171Y-40940771D01*
X92697790Y-40845533D01*
X92935885Y-40369342D02*
X92269219Y-40369342D01*
X92840647Y-40369342D02*
X92888266Y-40321723D01*
X92935885Y-40226485D01*
X92935885Y-40083628D01*
X92888266Y-39988390D01*
X92793028Y-39940771D01*
X92269219Y-39940771D01*
X92269219Y-38226485D02*
X92269219Y-38702676D01*
X93269219Y-38702676D01*
X92269219Y-37750295D02*
X92316838Y-37845533D01*
X92364457Y-37893152D01*
X92459695Y-37940771D01*
X92745409Y-37940771D01*
X92840647Y-37893152D01*
X92888266Y-37845533D01*
X92935885Y-37750295D01*
X92935885Y-37607438D01*
X92888266Y-37512200D01*
X92840647Y-37464580D01*
X92745409Y-37416961D01*
X92459695Y-37416961D01*
X92364457Y-37464580D01*
X92316838Y-37512200D01*
X92269219Y-37607438D01*
X92269219Y-37750295D01*
X92269219Y-36988390D02*
X92935885Y-36988390D01*
X92840647Y-36988390D02*
X92888266Y-36940771D01*
X92935885Y-36845533D01*
X92935885Y-36702676D01*
X92888266Y-36607438D01*
X92793028Y-36559819D01*
X92269219Y-36559819D01*
X92793028Y-36559819D02*
X92888266Y-36512200D01*
X92935885Y-36416961D01*
X92935885Y-36274104D01*
X92888266Y-36178866D01*
X92793028Y-36131247D01*
X92269219Y-36131247D01*
X92269219Y-35226485D02*
X92793028Y-35226485D01*
X92888266Y-35274104D01*
X92935885Y-35369342D01*
X92935885Y-35559819D01*
X92888266Y-35655057D01*
X92316838Y-35226485D02*
X92269219Y-35321723D01*
X92269219Y-35559819D01*
X92316838Y-35655057D01*
X92412076Y-35702676D01*
X92507314Y-35702676D01*
X92602552Y-35655057D01*
X92650171Y-35559819D01*
X92650171Y-35321723D01*
X92697790Y-35226485D01*
X92269219Y-34845533D02*
X92935885Y-34321723D01*
X92935885Y-34845533D02*
X92269219Y-34321723D01*
%TO.C,G\u002A\u002A\u002A*%
G36*
X96770335Y-34759967D02*
G01*
X96770262Y-34790952D01*
X96755082Y-35045882D01*
X96698433Y-35163066D01*
X96578637Y-35191287D01*
X96430163Y-35137376D01*
X96386939Y-34947286D01*
X96386082Y-34883753D01*
X96362979Y-34781782D01*
X96275926Y-34731882D01*
X96082420Y-34719885D01*
X95739958Y-34731625D01*
X95092977Y-34759967D01*
X95092977Y-36006004D01*
X95824415Y-36033793D01*
X96060443Y-36045500D01*
X96385166Y-36081702D01*
X96591138Y-36145897D01*
X96725874Y-36249454D01*
X96751737Y-36276316D01*
X96904631Y-36374534D01*
X97138402Y-36423820D01*
X97507790Y-36437325D01*
X98119686Y-36437325D01*
X98091992Y-35598646D01*
X98079118Y-35265464D01*
X98057083Y-34986431D01*
X98018538Y-34829832D01*
X97952662Y-34757018D01*
X97848637Y-34729338D01*
X97713793Y-34679848D01*
X97632977Y-34513678D01*
X97639346Y-34448599D01*
X97725018Y-34353889D01*
X97949279Y-34328646D01*
X98134189Y-34338148D01*
X98297035Y-34391731D01*
X98402327Y-34519122D01*
X98462338Y-34749748D01*
X98489344Y-35113034D01*
X98495618Y-35638406D01*
X98495563Y-35723731D01*
X98491317Y-36171431D01*
X98476290Y-36468842D01*
X98444852Y-36651765D01*
X98391372Y-36756000D01*
X98310222Y-36817349D01*
X98251275Y-36835783D01*
X98006151Y-36868388D01*
X97618198Y-36893939D01*
X97119930Y-36910608D01*
X96543860Y-36916571D01*
X96141588Y-36915499D01*
X95640927Y-36908301D01*
X95285902Y-36892203D01*
X95048276Y-36864749D01*
X94899813Y-36823484D01*
X94812276Y-36765951D01*
X94779338Y-36712649D01*
X94719432Y-36480487D01*
X94678065Y-36132686D01*
X94656019Y-35720235D01*
X94654076Y-35294119D01*
X94673016Y-34905328D01*
X94713622Y-34604847D01*
X94776675Y-34443665D01*
X94784167Y-34437086D01*
X94965329Y-34378005D01*
X95319610Y-34341277D01*
X95831015Y-34328646D01*
X96770335Y-34328646D01*
X96770335Y-34759967D01*
G37*
G36*
X98394074Y-41627460D02*
G01*
X98448993Y-41693576D01*
X98479560Y-41846480D01*
X98492770Y-42121133D01*
X98495618Y-42552495D01*
X98495507Y-42606332D01*
X98480558Y-43103778D01*
X98441674Y-43442610D01*
X98380600Y-43606835D01*
X98266394Y-43646449D01*
X97990734Y-43681780D01*
X97596685Y-43707177D01*
X97122977Y-43722642D01*
X96608338Y-43728173D01*
X96091496Y-43723772D01*
X95611180Y-43709437D01*
X95206119Y-43685169D01*
X94915041Y-43650969D01*
X94776675Y-43606835D01*
X94770096Y-43599343D01*
X94711015Y-43418180D01*
X94674287Y-43063899D01*
X94661656Y-42552495D01*
X94661659Y-42531720D01*
X94664663Y-42107617D01*
X94678185Y-41838746D01*
X94709375Y-41690072D01*
X94765381Y-41626560D01*
X94853354Y-41613174D01*
X94952180Y-41629897D01*
X95012465Y-41711046D01*
X95039078Y-41899025D01*
X95045052Y-42236193D01*
X95045052Y-42859212D01*
X96386939Y-42859212D01*
X96386939Y-42427891D01*
X96386968Y-42408435D01*
X96401500Y-42147427D01*
X96456939Y-42026236D01*
X96574258Y-41996571D01*
X96668732Y-42014710D01*
X96732473Y-42101132D01*
X96768302Y-42297044D01*
X96789918Y-42643552D01*
X96818260Y-43290533D01*
X98064298Y-43290533D01*
X98091992Y-42451854D01*
X98102157Y-42182387D01*
X98123228Y-41878287D01*
X98158207Y-41706527D01*
X98216535Y-41630394D01*
X98307652Y-41613174D01*
X98307806Y-41613174D01*
X98394074Y-41627460D01*
G37*
G36*
X98090843Y-40697568D02*
G01*
X97747689Y-40727721D01*
X97245129Y-40745012D01*
X96567164Y-40750533D01*
X96130957Y-40749294D01*
X95634271Y-40741868D01*
X95282083Y-40725623D01*
X95046369Y-40698151D01*
X94899107Y-40657050D01*
X94812276Y-40599913D01*
X94712208Y-40429443D01*
X94681113Y-40271287D01*
X96770335Y-40271287D01*
X98119686Y-40271287D01*
X98064298Y-38593929D01*
X97498094Y-38564734D01*
X97302901Y-38558818D01*
X96995978Y-38583024D01*
X96852581Y-38660583D01*
X96845481Y-38674736D01*
X96808594Y-38853577D01*
X96782267Y-39157152D01*
X96771803Y-39528457D01*
X96770335Y-40271287D01*
X94681113Y-40271287D01*
X94661656Y-40172324D01*
X94661656Y-39895355D01*
X95500335Y-39867661D01*
X96339015Y-39839967D01*
X96366709Y-39001287D01*
X96394403Y-38162608D01*
X95528029Y-38162608D01*
X95445757Y-38162594D01*
X95065321Y-38159627D01*
X94833503Y-38144364D01*
X94713493Y-38106623D01*
X94668480Y-38036224D01*
X94661656Y-37922986D01*
X94661799Y-37888894D01*
X94674593Y-37788995D01*
X94734120Y-37728208D01*
X94876622Y-37696817D01*
X95138340Y-37685107D01*
X95555514Y-37683363D01*
X95915750Y-37685797D01*
X96219860Y-37700791D01*
X96416293Y-37738191D01*
X96551279Y-37807776D01*
X96671046Y-37919324D01*
X96697358Y-37946672D01*
X96833951Y-38057454D01*
X97007167Y-38124664D01*
X97268690Y-38161937D01*
X97670207Y-38182909D01*
X98447694Y-38210533D01*
X98474896Y-39359638D01*
X98476208Y-39416152D01*
X98483489Y-39896157D01*
X98476959Y-40222805D01*
X98452845Y-40430800D01*
X98407372Y-40554844D01*
X98336765Y-40629638D01*
X98290585Y-40653458D01*
X98119686Y-40691198D01*
X98090843Y-40697568D01*
G37*
G36*
X97259445Y-44606223D02*
G01*
X97721212Y-44620437D01*
X98060972Y-44644042D01*
X98243939Y-44675760D01*
X98495618Y-44771448D01*
X98495618Y-46608938D01*
X98494385Y-47239971D01*
X98489039Y-47706682D01*
X98476995Y-48035800D01*
X98455674Y-48254055D01*
X98422492Y-48388176D01*
X98374869Y-48464892D01*
X98310222Y-48510934D01*
X98251275Y-48529368D01*
X98006151Y-48561973D01*
X97618198Y-48587523D01*
X97119930Y-48604193D01*
X96543860Y-48610155D01*
X96141588Y-48609084D01*
X95640927Y-48601886D01*
X95285902Y-48585788D01*
X95048276Y-48558334D01*
X94899813Y-48517069D01*
X94812276Y-48459535D01*
X94711519Y-48286275D01*
X94661656Y-48028215D01*
X94661656Y-47747514D01*
X95605291Y-47747514D01*
X95896605Y-47749073D01*
X96247116Y-47761534D01*
X96473582Y-47792572D01*
X96618011Y-47849395D01*
X96722411Y-47939212D01*
X96754530Y-47972254D01*
X96908117Y-48069445D01*
X97140869Y-48117806D01*
X97508438Y-48130910D01*
X98120981Y-48130910D01*
X98092639Y-47483929D01*
X98064298Y-46836948D01*
X96362977Y-46810774D01*
X95797556Y-46801203D01*
X95341528Y-46789488D01*
X95027048Y-46773241D01*
X94827968Y-46749182D01*
X94718141Y-46714030D01*
X94671419Y-46664504D01*
X94661656Y-46597325D01*
X94669576Y-46534964D01*
X94712269Y-46484109D01*
X94815914Y-46447898D01*
X95006660Y-46423050D01*
X95310655Y-46406284D01*
X95754044Y-46394319D01*
X96362977Y-46383877D01*
X98064298Y-46357703D01*
X98092639Y-45710721D01*
X98120981Y-45063740D01*
X94648323Y-45063740D01*
X94678952Y-44848080D01*
X94679895Y-44841499D01*
X94697743Y-44764833D01*
X94743808Y-44709088D01*
X94845334Y-44670322D01*
X95029565Y-44644596D01*
X95323744Y-44627968D01*
X95755114Y-44616498D01*
X96350920Y-44606246D01*
X96710454Y-44602677D01*
X97259445Y-44606223D01*
G37*
G36*
X94947349Y-49922207D02*
G01*
X94522546Y-49888331D01*
X94211154Y-49837536D01*
X93991310Y-49766905D01*
X93841155Y-49673520D01*
X93738829Y-49554464D01*
X93733397Y-49530552D01*
X93719566Y-49343062D01*
X93705322Y-48984427D01*
X93690913Y-48469270D01*
X93676586Y-47812217D01*
X93662588Y-47027891D01*
X93649167Y-46130917D01*
X93636569Y-45135919D01*
X93625043Y-44057522D01*
X93614834Y-42910348D01*
X93606191Y-41709023D01*
X93604338Y-41421798D01*
X94278260Y-41421798D01*
X94278261Y-41575160D01*
X94278399Y-42947088D01*
X94278985Y-44141155D01*
X94280319Y-45169896D01*
X94282701Y-46045846D01*
X94286429Y-46781539D01*
X94291803Y-47389508D01*
X94299123Y-47882290D01*
X94308688Y-48272417D01*
X94320797Y-48572424D01*
X94335750Y-48794846D01*
X94353847Y-48952216D01*
X94375386Y-49057071D01*
X94400668Y-49121943D01*
X94429992Y-49159367D01*
X94463657Y-49181877D01*
X94536429Y-49204283D01*
X94793104Y-49237404D01*
X95181425Y-49261746D01*
X95665479Y-49277482D01*
X96209356Y-49284787D01*
X96777143Y-49283834D01*
X97332928Y-49274797D01*
X97840799Y-49257850D01*
X98264843Y-49233167D01*
X98569149Y-49200922D01*
X98717805Y-49161287D01*
X98728375Y-49152509D01*
X98756660Y-49113461D01*
X98781111Y-49044813D01*
X98801949Y-48934096D01*
X98819394Y-48768841D01*
X98833668Y-48536579D01*
X98844993Y-48224842D01*
X98853589Y-47821160D01*
X98859678Y-47313065D01*
X98863480Y-46688087D01*
X98865217Y-45933758D01*
X98865110Y-45037609D01*
X98863380Y-43987171D01*
X98860248Y-42769975D01*
X98855936Y-41373552D01*
X98831090Y-33705627D01*
X96914109Y-33643050D01*
X96352352Y-33628442D01*
X95746043Y-33622028D01*
X95237312Y-33627187D01*
X94857435Y-33643540D01*
X94637694Y-33670707D01*
X94278260Y-33760940D01*
X94278260Y-41421798D01*
X93604338Y-41421798D01*
X93602899Y-41198875D01*
X93594921Y-40022488D01*
X93586836Y-38908476D01*
X93578777Y-37871207D01*
X93570878Y-36925051D01*
X93563272Y-36084376D01*
X93556092Y-35363551D01*
X93549472Y-34776945D01*
X93543545Y-34338928D01*
X93538445Y-34063868D01*
X93534304Y-33966133D01*
X93532400Y-33958743D01*
X93563133Y-33835568D01*
X93645116Y-33619226D01*
X93652742Y-33601015D01*
X93734491Y-33421099D01*
X93826082Y-33280256D01*
X93950245Y-33173703D01*
X94129713Y-33096660D01*
X94387219Y-33044347D01*
X94745492Y-33011981D01*
X95227267Y-32994781D01*
X95855274Y-32987968D01*
X96652246Y-32986759D01*
X99079426Y-32986759D01*
X99308340Y-33215673D01*
X99483594Y-33465160D01*
X99595710Y-33766805D01*
X99598758Y-33794451D01*
X99607204Y-33999652D01*
X99614533Y-34376318D01*
X99620687Y-34909269D01*
X99625609Y-35583327D01*
X99629240Y-36383312D01*
X99631523Y-37294045D01*
X99632401Y-38300347D01*
X99631816Y-39387040D01*
X99629709Y-40538944D01*
X99626024Y-41740879D01*
X99597883Y-49392735D01*
X99284861Y-49672389D01*
X98971839Y-49952042D01*
X96717820Y-49952042D01*
X96224624Y-49950872D01*
X96209356Y-49950685D01*
X95507421Y-49942081D01*
X94947349Y-49922207D01*
G37*
G36*
X96770335Y-84594767D02*
G01*
X96770262Y-84625752D01*
X96755082Y-84880682D01*
X96698433Y-84997866D01*
X96578637Y-85026087D01*
X96430163Y-84972176D01*
X96386939Y-84782086D01*
X96386082Y-84718553D01*
X96362979Y-84616582D01*
X96275926Y-84566682D01*
X96082420Y-84554685D01*
X95739958Y-84566425D01*
X95092977Y-84594767D01*
X95092977Y-85840804D01*
X95824415Y-85868593D01*
X96060443Y-85880300D01*
X96385166Y-85916502D01*
X96591138Y-85980697D01*
X96725874Y-86084254D01*
X96751737Y-86111116D01*
X96904631Y-86209334D01*
X97138402Y-86258620D01*
X97507790Y-86272125D01*
X98119686Y-86272125D01*
X98091992Y-85433446D01*
X98079118Y-85100264D01*
X98057083Y-84821231D01*
X98018538Y-84664632D01*
X97952662Y-84591818D01*
X97848637Y-84564138D01*
X97713793Y-84514648D01*
X97632977Y-84348478D01*
X97639346Y-84283399D01*
X97725018Y-84188689D01*
X97949279Y-84163446D01*
X98134189Y-84172948D01*
X98297035Y-84226531D01*
X98402327Y-84353922D01*
X98462338Y-84584548D01*
X98489344Y-84947834D01*
X98495618Y-85473206D01*
X98495563Y-85558531D01*
X98491317Y-86006231D01*
X98476290Y-86303642D01*
X98444852Y-86486565D01*
X98391372Y-86590800D01*
X98310222Y-86652149D01*
X98251275Y-86670583D01*
X98006151Y-86703188D01*
X97618198Y-86728739D01*
X97119930Y-86745408D01*
X96543860Y-86751371D01*
X96141588Y-86750299D01*
X95640927Y-86743101D01*
X95285902Y-86727003D01*
X95048276Y-86699549D01*
X94899813Y-86658284D01*
X94812276Y-86600751D01*
X94779338Y-86547449D01*
X94719432Y-86315287D01*
X94678065Y-85967486D01*
X94656019Y-85555035D01*
X94654076Y-85128919D01*
X94673016Y-84740128D01*
X94713622Y-84439647D01*
X94776675Y-84278465D01*
X94784167Y-84271886D01*
X94965329Y-84212805D01*
X95319610Y-84176077D01*
X95831015Y-84163446D01*
X96770335Y-84163446D01*
X96770335Y-84594767D01*
G37*
G36*
X94947349Y-99757007D02*
G01*
X94522546Y-99723131D01*
X94211154Y-99672336D01*
X93991310Y-99601705D01*
X93841155Y-99508320D01*
X93738829Y-99389264D01*
X93733397Y-99365352D01*
X93719566Y-99177862D01*
X93705322Y-98819227D01*
X93690913Y-98304070D01*
X93676586Y-97647017D01*
X93662588Y-96862691D01*
X93649167Y-95965717D01*
X93636569Y-94970719D01*
X93625043Y-93892322D01*
X93614834Y-92745148D01*
X93606191Y-91543823D01*
X93604338Y-91256598D01*
X94278260Y-91256598D01*
X94278261Y-91409960D01*
X94278399Y-92781888D01*
X94278985Y-93975955D01*
X94280319Y-95004696D01*
X94282701Y-95880646D01*
X94286429Y-96616339D01*
X94291803Y-97224308D01*
X94299123Y-97717090D01*
X94308688Y-98107217D01*
X94320797Y-98407224D01*
X94335750Y-98629646D01*
X94353847Y-98787016D01*
X94375386Y-98891871D01*
X94400668Y-98956743D01*
X94429992Y-98994167D01*
X94463657Y-99016677D01*
X94536429Y-99039083D01*
X94793104Y-99072204D01*
X95181425Y-99096546D01*
X95665479Y-99112282D01*
X96209356Y-99119587D01*
X96777143Y-99118634D01*
X97332928Y-99109597D01*
X97840799Y-99092650D01*
X98264843Y-99067967D01*
X98569149Y-99035722D01*
X98717805Y-98996087D01*
X98728375Y-98987309D01*
X98756660Y-98948261D01*
X98781111Y-98879613D01*
X98801949Y-98768896D01*
X98819394Y-98603641D01*
X98833668Y-98371379D01*
X98844993Y-98059642D01*
X98853589Y-97655960D01*
X98859678Y-97147865D01*
X98863480Y-96522887D01*
X98865217Y-95768558D01*
X98865110Y-94872409D01*
X98863380Y-93821971D01*
X98860248Y-92604775D01*
X98855936Y-91208352D01*
X98831090Y-83540427D01*
X96914109Y-83477850D01*
X96352352Y-83463242D01*
X95746043Y-83456828D01*
X95237312Y-83461987D01*
X94857435Y-83478340D01*
X94637694Y-83505507D01*
X94278260Y-83595740D01*
X94278260Y-91256598D01*
X93604338Y-91256598D01*
X93602899Y-91033675D01*
X93594921Y-89857288D01*
X93586836Y-88743276D01*
X93578777Y-87706007D01*
X93570878Y-86759851D01*
X93563272Y-85919176D01*
X93556092Y-85198351D01*
X93549472Y-84611745D01*
X93543545Y-84173728D01*
X93538445Y-83898668D01*
X93534304Y-83800933D01*
X93532400Y-83793543D01*
X93563133Y-83670368D01*
X93645116Y-83454026D01*
X93652742Y-83435815D01*
X93734491Y-83255899D01*
X93826082Y-83115056D01*
X93950245Y-83008503D01*
X94129713Y-82931460D01*
X94387219Y-82879147D01*
X94745492Y-82846781D01*
X95227267Y-82829581D01*
X95855274Y-82822768D01*
X96652246Y-82821559D01*
X99079426Y-82821559D01*
X99308340Y-83050473D01*
X99483594Y-83299960D01*
X99595710Y-83601605D01*
X99598758Y-83629251D01*
X99607204Y-83834452D01*
X99614533Y-84211118D01*
X99620687Y-84744069D01*
X99625609Y-85418127D01*
X99629240Y-86218112D01*
X99631523Y-87128845D01*
X99632401Y-88135147D01*
X99631816Y-89221840D01*
X99629709Y-90373744D01*
X99626024Y-91575679D01*
X99597883Y-99227535D01*
X99284861Y-99507189D01*
X98971839Y-99786842D01*
X96717820Y-99786842D01*
X96224624Y-99785672D01*
X96209356Y-99785485D01*
X95507421Y-99776881D01*
X94947349Y-99757007D01*
G37*
G36*
X98394074Y-91462260D02*
G01*
X98448993Y-91528376D01*
X98479560Y-91681280D01*
X98492770Y-91955933D01*
X98495618Y-92387295D01*
X98495507Y-92441132D01*
X98480558Y-92938578D01*
X98441674Y-93277410D01*
X98380600Y-93441635D01*
X98266394Y-93481249D01*
X97990734Y-93516580D01*
X97596685Y-93541977D01*
X97122977Y-93557442D01*
X96608338Y-93562973D01*
X96091496Y-93558572D01*
X95611180Y-93544237D01*
X95206119Y-93519969D01*
X94915041Y-93485769D01*
X94776675Y-93441635D01*
X94770096Y-93434143D01*
X94711015Y-93252980D01*
X94674287Y-92898699D01*
X94661656Y-92387295D01*
X94661659Y-92366520D01*
X94664663Y-91942417D01*
X94678185Y-91673546D01*
X94709375Y-91524872D01*
X94765381Y-91461360D01*
X94853354Y-91447974D01*
X94952180Y-91464697D01*
X95012465Y-91545846D01*
X95039078Y-91733825D01*
X95045052Y-92070993D01*
X95045052Y-92694012D01*
X96386939Y-92694012D01*
X96386939Y-92262691D01*
X96386968Y-92243235D01*
X96401500Y-91982227D01*
X96456939Y-91861036D01*
X96574258Y-91831371D01*
X96668732Y-91849510D01*
X96732473Y-91935932D01*
X96768302Y-92131844D01*
X96789918Y-92478352D01*
X96818260Y-93125333D01*
X98064298Y-93125333D01*
X98091992Y-92286654D01*
X98102157Y-92017187D01*
X98123228Y-91713087D01*
X98158207Y-91541327D01*
X98216535Y-91465194D01*
X98307652Y-91447974D01*
X98307806Y-91447974D01*
X98394074Y-91462260D01*
G37*
G36*
X97259445Y-94441023D02*
G01*
X97721212Y-94455237D01*
X98060972Y-94478842D01*
X98243939Y-94510560D01*
X98495618Y-94606248D01*
X98495618Y-96443738D01*
X98494385Y-97074771D01*
X98489039Y-97541482D01*
X98476995Y-97870600D01*
X98455674Y-98088855D01*
X98422492Y-98222976D01*
X98374869Y-98299692D01*
X98310222Y-98345734D01*
X98251275Y-98364168D01*
X98006151Y-98396773D01*
X97618198Y-98422323D01*
X97119930Y-98438993D01*
X96543860Y-98444955D01*
X96141588Y-98443884D01*
X95640927Y-98436686D01*
X95285902Y-98420588D01*
X95048276Y-98393134D01*
X94899813Y-98351869D01*
X94812276Y-98294335D01*
X94711519Y-98121075D01*
X94661656Y-97863015D01*
X94661656Y-97582314D01*
X95605291Y-97582314D01*
X95896605Y-97583873D01*
X96247116Y-97596334D01*
X96473582Y-97627372D01*
X96618011Y-97684195D01*
X96722411Y-97774012D01*
X96754530Y-97807054D01*
X96908117Y-97904245D01*
X97140869Y-97952606D01*
X97508438Y-97965710D01*
X98120981Y-97965710D01*
X98092639Y-97318729D01*
X98064298Y-96671748D01*
X96362977Y-96645574D01*
X95797556Y-96636003D01*
X95341528Y-96624288D01*
X95027048Y-96608041D01*
X94827968Y-96583982D01*
X94718141Y-96548830D01*
X94671419Y-96499304D01*
X94661656Y-96432125D01*
X94669576Y-96369764D01*
X94712269Y-96318909D01*
X94815914Y-96282698D01*
X95006660Y-96257850D01*
X95310655Y-96241084D01*
X95754044Y-96229119D01*
X96362977Y-96218677D01*
X98064298Y-96192503D01*
X98092639Y-95545521D01*
X98120981Y-94898540D01*
X94648323Y-94898540D01*
X94678952Y-94682880D01*
X94679895Y-94676299D01*
X94697743Y-94599633D01*
X94743808Y-94543888D01*
X94845334Y-94505122D01*
X95029565Y-94479396D01*
X95323744Y-94462768D01*
X95755114Y-94451298D01*
X96350920Y-94441046D01*
X96710454Y-94437477D01*
X97259445Y-94441023D01*
G37*
G36*
X98090843Y-90532368D02*
G01*
X97747689Y-90562521D01*
X97245129Y-90579812D01*
X96567164Y-90585333D01*
X96130957Y-90584094D01*
X95634271Y-90576668D01*
X95282083Y-90560423D01*
X95046369Y-90532951D01*
X94899107Y-90491850D01*
X94812276Y-90434713D01*
X94712208Y-90264243D01*
X94681113Y-90106087D01*
X96770335Y-90106087D01*
X98119686Y-90106087D01*
X98064298Y-88428729D01*
X97498094Y-88399534D01*
X97302901Y-88393618D01*
X96995978Y-88417824D01*
X96852581Y-88495383D01*
X96845481Y-88509536D01*
X96808594Y-88688377D01*
X96782267Y-88991952D01*
X96771803Y-89363257D01*
X96770335Y-90106087D01*
X94681113Y-90106087D01*
X94661656Y-90007124D01*
X94661656Y-89730155D01*
X95500335Y-89702461D01*
X96339015Y-89674767D01*
X96366709Y-88836087D01*
X96394403Y-87997408D01*
X95528029Y-87997408D01*
X95445757Y-87997394D01*
X95065321Y-87994427D01*
X94833503Y-87979164D01*
X94713493Y-87941423D01*
X94668480Y-87871024D01*
X94661656Y-87757786D01*
X94661799Y-87723694D01*
X94674593Y-87623795D01*
X94734120Y-87563008D01*
X94876622Y-87531617D01*
X95138340Y-87519907D01*
X95555514Y-87518163D01*
X95915750Y-87520597D01*
X96219860Y-87535591D01*
X96416293Y-87572991D01*
X96551279Y-87642576D01*
X96671046Y-87754124D01*
X96697358Y-87781472D01*
X96833951Y-87892254D01*
X97007167Y-87959464D01*
X97268690Y-87996737D01*
X97670207Y-88017709D01*
X98447694Y-88045333D01*
X98474896Y-89194438D01*
X98476208Y-89250952D01*
X98483489Y-89730957D01*
X98476959Y-90057605D01*
X98452845Y-90265600D01*
X98407372Y-90389644D01*
X98336765Y-90464438D01*
X98290585Y-90488258D01*
X98119686Y-90525998D01*
X98090843Y-90532368D01*
G37*
%TD*%
M02*
